<?xml version="1.0" standalone="no"?>
<!DOCTYPE svg PUBLIC "-//W3C//DTD SVG 20010904//EN"
 "http://www.w3.org/TR/2001/REC-SVG-20010904/DTD/svg10.dtd">
<svg version="1.0" xmlns="http://www.w3.org/2000/svg"
 width="1024.000000pt" height="1024.000000pt" viewBox="0 0 1024.000000 1024.000000"
 preserveAspectRatio="xMidYMid meet">
<metadata>
Created by potrace 1.14, written by Peter Selinger 2001-2017
</metadata>
<g transform="translate(0.000000,1024.000000) scale(0.100000,-0.100000)"
fill="#000000" stroke="none">
<path d="M0 5120 l0 -5120 5120 0 5120 0 0 5120 0 5120 -5120 0 -5120 0 0
-5120z m5395 3910 c816 -74 1531 -362 2185 -879 132 -104 506 -481 621 -626
219 -274 378 -543 505 -851 145 -354 231 -675 270 -1011 25 -208 25 -689 0
-898 -93 -791 -384 -1505 -856 -2102 -100 -127 -377 -413 -505 -522 -604 -516
-1407 -861 -2170 -931 -145 -13 -593 -13 -731 1 -341 33 -753 142 -1099 289
-828 352 -1557 1027 -1945 1801 -220 437 -361 929 -416 1451 -23 217 -15 708
15 928 63 463 184 856 386 1261 185 369 396 661 694 960 192 191 376 344 571
474 500 332 1073 544 1715 635 199 28 564 38 760 20z"/>
<path d="M4830 8983 c-621 -63 -1135 -218 -1619 -489 -863 -485 -1461 -1226
-1746 -2167 -104 -346 -146 -582 -166 -932 -13 -226 0 -602 26 -780 32 -224
90 -476 153 -670 302 -924 841 -1610 1674 -2129 412 -257 925 -439 1468 -522
141 -22 615 -30 792 -15 284 25 632 100 887 191 236 83 301 111 496 209 397
201 736 449 1036 759 349 361 627 788 799 1227 195 499 300 996 300 1422 l0
123 -657 0 c-536 1 -664 3 -688 15 -27 12 -4 14 200 15 127 1 284 1 350 1
l120 -1 124 134 c169 184 161 168 161 307 0 64 -3 144 -7 178 -5 53 -10 64
-29 71 -50 19 -56 90 -9 112 35 16 71 3 85 -32 11 -25 10 -34 -5 -56 -15 -23
-16 -45 -10 -203 6 -151 5 -182 -8 -208 -9 -16 -73 -91 -142 -166 l-126 -137
321 0 320 0 0 108 c0 136 -23 381 -50 532 -76 424 -271 935 -492 1288 -155
247 -298 424 -547 673 -235 234 -352 330 -616 506 -519 346 -1120 560 -1760
628 -126 13 -533 19 -635 8z m660 -33 c676 -67 1398 -361 1956 -796 198 -154
442 -388 569 -545 11 -13 37 -46 58 -72 22 -26 37 -54 34 -61 -3 -8 1 -13 11
-12 10 1 16 -6 16 -16 -1 -10 2 -15 7 -12 5 3 12 -3 16 -13 7 -17 39 -62 101
-142 15 -19 27 -39 27 -45 0 -6 5 -14 10 -18 6 -5 4 -12 -5 -19 -13 -9 -12
-10 2 -5 18 5 31 -9 77 -86 14 -23 18 -38 11 -38 -7 0 -14 9 -17 20 -3 11 -9
17 -14 15 -4 -3 -6 -12 -2 -20 3 -10 -1 -15 -12 -15 -12 0 -16 6 -12 20 4 16
0 20 -19 20 -13 0 -24 4 -24 10 0 6 16 8 36 5 29 -4 34 -2 25 9 -7 8 -21 12
-31 9 -14 -4 -20 0 -20 11 0 9 -4 16 -10 16 -5 0 -10 7 -10 15 0 8 -4 15 -10
15 -12 0 -14 26 -2 33 4 2 2 2 -5 1 -7 -2 -19 3 -27 12 -10 9 -17 11 -21 3 -4
-6 2 -13 14 -16 23 -6 27 -18 10 -29 -12 -7 -59 38 -59 57 0 6 7 9 15 5 18 -7
19 0 3 20 -46 55 -338 344 -348 344 -7 0 -10 7 -6 15 3 8 1 15 -4 15 -6 0 -10
6 -10 13 0 7 -48 62 -107 123 -60 60 -117 121 -128 134 l-20 24 30 -21 c28
-20 31 -20 31 -3 0 10 -6 16 -13 13 -7 -3 -13 -1 -13 5 0 6 -24 26 -52 46
-134 91 -173 118 -178 125 -3 4 -12 10 -20 14 -8 4 -22 11 -30 15 -42 23 -270
131 -300 142 -19 7 -57 23 -85 35 -27 12 -75 30 -105 40 -30 9 -59 21 -64 26
-6 5 -16 9 -24 9 -7 0 -38 12 -69 26 -30 15 -72 27 -92 27 -20 0 -39 5 -42 10
-4 5 -18 10 -33 10 -18 0 -26 5 -26 18 0 21 -16 34 -24 20 -4 -5 -1 -11 6 -13
8 -3 6 -7 -5 -11 -10 -4 -16 -2 -14 5 1 6 -9 15 -23 19 -14 4 -20 7 -14 8 7 1
14 7 17 15 4 9 -4 13 -25 14 -26 1 -28 -1 -16 -16 10 -14 8 -13 -9 1 -12 10
-20 27 -18 37 2 10 -3 21 -11 24 -17 7 -18 -6 -2 -22 9 -9 9 -12 0 -12 -6 0
-23 11 -37 25 -20 20 -29 24 -43 16 -15 -9 -15 -10 -1 -11 9 0 19 -7 23 -15 4
-13 1 -12 -20 1 -17 12 -22 20 -15 27 20 20 11 27 -29 25 -22 -1 -40 -6 -40
-12 0 -6 -5 -4 -10 4 -5 8 -10 11 -10 6 0 -5 -7 -3 -15 4 -8 6 -23 9 -35 5
-12 -4 -28 -1 -36 6 -13 10 -17 10 -25 -2 -6 -10 -9 -11 -9 -1 0 7 9 16 21 20
19 7 19 9 5 21 -13 11 -17 11 -22 -3 -3 -9 -11 -13 -17 -9 -6 4 -8 -2 -5 -15
4 -13 2 -20 -3 -16 -6 3 -8 19 -5 34 4 29 -7 41 -44 46 -8 1 -23 5 -32 9 -13
5 -18 2 -18 -9 0 -9 10 -21 23 -26 15 -6 17 -9 6 -9 -21 -1 -34 15 -44 54 -6
22 -9 25 -12 12 -4 -14 -8 -16 -19 -6 -11 9 -21 9 -44 -1 -22 -9 -34 -10 -43
-1 -8 6 -17 8 -20 4 -4 -3 -7 -1 -7 5 0 7 7 12 15 12 8 0 15 -4 15 -10 0 -5 7
-10 15 -10 8 0 15 3 15 8 0 11 -40 33 -50 27 -4 -3 -11 1 -13 7 -3 7 -6 1 -6
-14 -1 -16 -6 -28 -12 -28 -5 0 -7 5 -4 10 4 6 -6 10 -24 10 -43 0 -61 10 -61
33 0 16 -3 18 -12 9 -18 -18 -28 -14 -28 11 0 25 -33 67 -53 67 -7 0 -1 -10
13 -21 l25 -20 -25 7 c-23 6 -23 6 -7 -10 9 -10 17 -23 18 -29 1 -7 5 -1 9 13
7 23 8 23 9 3 1 -12 4 -28 7 -36 4 -12 0 -14 -15 -10 -12 3 -21 11 -21 19 0 7
-5 16 -12 20 -8 5 -9 2 -5 -9 8 -21 -6 -22 -23 -2 -17 20 -31 19 -23 -2 4 -11
3 -14 -5 -9 -18 11 -15 66 3 66 9 0 12 -6 8 -17 -4 -10 -2 -14 4 -10 6 4 14 1
16 -5 3 -7 6 -3 6 9 1 23 -13 37 -41 39 -10 1 -19 3 -20 4 -2 1 -16 4 -32 6
-25 3 -26 1 -12 -9 16 -12 16 -14 -3 -36 -12 -13 -21 -19 -21 -13 0 6 5 14 10
17 15 9 12 25 -6 25 -8 0 -13 4 -9 9 3 5 1 12 -5 16 -8 5 -15 -22 -11 -47 0
-4 -6 -5 -14 -2 -11 5 -13 2 -9 -10 3 -9 1 -16 -5 -16 -6 0 -11 7 -11 16 0 14
-3 14 -15 4 -12 -10 -15 -9 -16 6 0 11 -3 14 -6 7 -8 -22 -25 -14 -18 8 5 14
3 19 -3 15 -6 -3 -12 -2 -14 4 -2 6 -9 6 -18 -1 -11 -8 -12 -12 -2 -16 14 -5
16 -23 3 -23 -5 0 -16 6 -23 13 -10 10 -50 14 -146 15 -73 1 -137 4 -142 7 -6
4 -10 2 -10 -2 0 -5 -12 -10 -27 -11 -33 -3 -42 -11 -23 -22 8 -5 11 -12 7
-16 -3 -4 -13 -1 -22 6 -12 10 -15 10 -15 -4 0 -19 -20 -22 -21 -3 0 10 -2 10
-6 0 -2 -7 -10 -13 -16 -13 -6 0 -18 -6 -26 -13 -16 -13 -116 -43 -155 -46 -4
-1 -5 -8 -2 -16 7 -21 -20 -31 -39 -15 -8 7 -21 10 -30 7 -8 -4 -17 -2 -20 3
-8 13 -52 13 -60 0 -4 -6 -11 -8 -16 -4 -5 3 -7 9 -5 13 7 10 -56 1 -70 -10
-6 -5 -18 -7 -25 -4 -8 3 -28 7 -46 9 -26 3 -31 0 -28 -15 3 -13 -2 -19 -15
-19 -25 0 -70 -21 -70 -33 0 -5 -7 -7 -15 -3 -8 3 -15 2 -15 -3 0 -5 -11 -12
-25 -15 -14 -4 -25 -11 -25 -17 0 -6 4 -8 9 -4 6 3 15 -4 21 -16 7 -13 8 -19
2 -15 -6 3 -13 2 -17 -4 -4 -7 9 -9 39 -6 26 3 44 1 42 -3 -3 -4 -1 -13 4 -20
10 -17 30 -5 30 17 0 15 -2 15 -10 2 -6 -9 -10 -10 -10 -3 0 19 20 26 26 9 3
-9 10 -13 15 -10 15 9 53 -25 54 -48 0 -12 6 -23 13 -25 6 -3 12 3 12 12 0 9
-4 13 -10 10 -5 -3 -10 -4 -10 -1 0 3 8 10 18 15 14 8 18 5 19 -11 1 -12 7
-26 13 -32 8 -8 10 -3 4 18 -6 23 -4 27 7 21 11 -7 12 -5 4 6 -14 20 -13 62 3
65 7 1 8 0 2 -3 -16 -8 -12 -20 10 -26 23 -6 36 9 22 26 -5 7 -9 31 -8 55 2
72 34 75 126 10 56 -38 96 -54 51 -19 l-24 19 24 11 c23 12 23 12 4 -5 -20
-16 -20 -16 3 -11 19 4 22 2 20 -23 -1 -16 -7 -26 -14 -23 -20 7 -27 -47 -9
-68 23 -24 10 -42 -24 -34 -14 4 -23 4 -19 0 8 -9 -20 -39 -44 -48 -12 -4 -15
-2 -11 9 3 7 1 14 -5 14 -6 0 -13 -13 -17 -30 -4 -16 -13 -30 -21 -30 -8 0
-14 -7 -14 -15 0 -18 21 -20 39 -2 11 10 11 8 1 -11 -7 -15 -17 -21 -26 -18
-9 3 -12 1 -9 -5 10 -16 -16 -40 -36 -34 -12 4 -21 1 -25 -9 -3 -9 -14 -16
-24 -16 -10 0 -28 -16 -40 -35 -12 -19 -24 -35 -27 -35 -3 0 2 11 11 25 14 21
14 25 2 25 -18 0 -46 -27 -46 -43 0 -7 9 -18 20 -25 19 -12 18 -42 -2 -42 -14
0 -58 -43 -58 -57 0 -6 -11 -20 -25 -31 -14 -11 -25 -25 -25 -31 0 -6 -4 -11
-10 -11 -5 0 -10 5 -10 10 0 16 -37 12 -44 -5 -3 -8 -16 -15 -28 -16 -22 -1
-22 -1 2 -8 24 -7 24 -7 -8 -20 -18 -8 -31 -15 -29 -17 2 -2 43 12 93 32 104
41 352 106 518 134 405 69 785 39 1211 -96 147 -46 145 -44 120 -90 -11 -21
-28 -47 -37 -60 l-18 -22 -65 24 c-102 37 -277 81 -420 106 -115 20 -162 23
-415 22 -267 0 -293 -2 -420 -27 -336 -66 -595 -168 -904 -355 l-109 -66 -54
58 c-29 31 -51 61 -48 66 7 11 -35 51 -47 44 -4 -3 -36 20 -70 51 -34 30 -70
54 -79 53 -9 -2 -27 6 -40 17 -16 13 -14 9 5 -13 37 -40 26 -55 -13 -18 -35
33 -64 26 -33 -8 42 -47 33 -48 -20 -3 -31 26 -58 44 -61 40 -3 -5 19 -34 49
-66 89 -95 65 -89 -40 11 -36 34 -69 62 -72 62 -4 0 10 -20 30 -44 20 -24 36
-47 36 -50 0 -15 -19 -3 -63 39 -57 53 -62 46 -8 -13 45 -49 38 -66 -10 -22
-43 39 -52 29 -11 -13 42 -43 30 -56 -15 -17 -33 29 -53 38 -53 23 0 -5 17
-19 37 -32 l37 -24 -27 -14 c-32 -16 -34 -29 -7 -38 19 -6 48 -45 34 -45 -4 0
-22 11 -40 25 -44 34 -54 14 -12 -24 35 -32 48 -38 48 -21 0 15 57 41 75 34
21 -9 45 -57 39 -80 -4 -14 25 -48 109 -132 l114 -113 85 63 c93 68 170 117
308 195 349 198 720 304 1153 329 l117 7 6 39 c8 44 15 42 29 -10 l11 -37 124
-6 c126 -7 246 -21 331 -40 60 -13 81 -17 99 -18 13 -1 13 -3 1 -10 -11 -7 -3
-12 28 -21 38 -10 49 -30 15 -30 -8 0 -14 -4 -14 -10 0 -5 5 -10 11 -10 5 0 7
-4 4 -10 -3 -5 -23 -10 -43 -11 -38 -1 -37 -3 12 -14 15 -3 26 -8 24 -11 -8
-7 -108 19 -103 27 3 4 -4 5 -14 2 -11 -3 -43 0 -71 6 -44 9 -334 41 -377 41
-7 0 -13 -11 -13 -24 0 -23 4 -24 88 -30 638 -50 1171 -292 1610 -733 l144
-144 34 21 c20 11 43 20 53 20 16 0 18 6 14 48 -3 28 -14 57 -27 72 l-21 25
22 -19 23 -19 -3 39 c-2 33 1 39 20 42 20 3 21 -2 28 -93 5 -61 11 -92 16 -84
6 10 9 11 9 2 0 -10 28 -13 108 -13 l108 0 2 26 c7 91 85 123 148 60 44 -44
46 -86 5 -127 -33 -33 -70 -37 -115 -14 -21 11 -62 15 -151 15 l-123 0 -12
-37 c-18 -54 -30 -63 -30 -22 0 49 -11 62 -46 53 -16 -4 -32 -8 -36 -11 -4 -2
19 -38 51 -81 31 -42 75 -105 96 -139 l40 -62 154 3 155 3 28 33 c15 18 44 61
65 94 20 34 61 94 90 134 l54 72 218 0 c185 0 220 -2 225 -15 5 -13 -23 -15
-214 -15 l-220 0 -57 -77 c-32 -43 -62 -82 -66 -88 -33 -41 -85 -140 -76 -146
6 -3 81 -5 167 -3 100 1 142 -1 117 -6 -22 -4 -169 -11 -326 -15 l-285 -8 34
-63 c18 -35 31 -64 28 -64 -3 0 -15 18 -26 40 -14 27 -27 40 -38 38 -10 -2
-16 3 -14 10 1 8 -2 11 -8 7 -6 -3 -8 -11 -5 -16 4 -5 3 -9 -2 -9 -4 0 -38 44
-75 98 -264 381 -618 687 -1013 873 -210 99 -511 183 -745 208 -236 25 -231
25 -237 2 -7 -27 -39 -27 -46 0 -6 20 -9 21 -109 14 -512 -33 -940 -194 -1351
-507 -255 -194 -459 -432 -636 -741 -115 -202 -176 -369 -245 -669 -7 -31 -14
-33 -70 -17 -37 10 -38 11 -32 48 3 21 24 93 46 159 22 67 40 123 40 125 0 2
-42 4 -92 3 -51 0 -205 3 -343 7 l-250 8 -122 122 c-79 79 -133 125 -152 130
-40 10 -65 47 -56 85 7 34 34 50 90 54 l40 3 -1 -45 c-1 -25 -4 -54 -8 -65 -5
-16 17 -45 110 -142 l116 -123 56 0 c79 0 101 7 95 30 -6 22 32 80 52 80 7 0
15 -6 18 -14 3 -8 -1 -13 -10 -12 -8 0 -24 -11 -36 -26 -17 -22 -18 -30 -8
-42 11 -13 41 -15 178 -13 l165 2 27 75 c15 41 32 75 38 75 5 0 27 -15 47 -33
l38 -33 -16 -40 c-20 -51 -21 -49 12 -49 26 0 31 7 67 92 52 121 135 268 233
415 241 359 522 620 902 833 305 173 649 271 1033 296 104 7 107 7 107 30 0
28 -3 28 -165 14 -332 -29 -648 -120 -940 -270 -281 -145 -482 -298 -715 -546
-152 -161 -273 -329 -410 -568 -51 -89 -61 -113 -52 -127 9 -15 8 -16 -13 -10
-29 8 -578 549 -570 562 3 5 0 6 -7 4 -8 -3 -25 6 -38 20 -21 22 -22 28 -10
35 20 13 26 12 40 -5 11 -13 10 -14 -4 -9 -12 5 -15 2 -10 -10 7 -18 20 -21
29 -6 4 6 11 8 16 5 5 -4 9 -1 9 6 0 7 3 9 6 6 4 -4 1 -14 -7 -23 -12 -15 -12
-16 8 -10 24 8 55 -26 46 -50 -3 -9 73 -92 201 -220 l205 -205 51 96 c68 132
205 334 317 468 l93 112 -165 164 c-91 90 -169 161 -173 156 -4 -4 -1 -10 6
-12 6 -3 12 -12 12 -21 -1 -14 -4 -13 -19 5 -11 13 -17 31 -14 43 3 11 0 20
-6 20 -6 0 -11 -4 -11 -10 0 -5 -7 -10 -15 -10 -8 0 -15 7 -15 15 0 8 5 15 10
15 6 0 10 9 10 21 0 12 -5 19 -12 16 -7 -2 -12 -12 -10 -22 3 -13 -1 -16 -14
-11 -9 3 -23 1 -30 -5 -11 -9 -18 -9 -28 0 -8 7 -25 9 -41 5 -19 -5 -32 -1
-49 16 -13 12 -26 18 -29 13 -9 -14 9 -36 22 -29 7 5 11 -1 11 -14 0 -12 -3
-20 -7 -18 -51 24 -63 33 -63 45 0 7 -7 13 -15 13 -8 0 -15 7 -15 15 0 8 -7
15 -15 15 -22 0 -19 -5 20 -46 19 -19 35 -40 35 -46 0 -7 4 -7 13 0 9 8 12 5
13 -13 1 -15 -4 -22 -15 -21 -9 0 -16 -6 -16 -16 0 -27 -12 -31 -25 -9 -6 12
-17 21 -25 21 -8 0 -15 4 -15 10 0 12 -48 60 -60 60 -6 0 -10 -4 -10 -10 0 -5
7 -10 15 -10 8 0 15 -4 15 -9 0 -5 17 -28 37 -51 46 -51 53 -81 18 -78 -26 2
-32 12 -15 23 15 9 12 25 -5 25 -8 0 -15 -7 -15 -15 0 -22 -16 -18 -38 10 -23
29 -32 32 -32 10 0 -8 5 -15 10 -15 16 0 100 -77 100 -91 0 -19 -29 -7 -63 26
-20 19 -41 35 -47 35 -5 0 -10 7 -10 15 0 8 -4 15 -10 15 -12 0 -31 -35 -23
-44 3 -3 -1 -6 -11 -6 -9 0 -20 9 -24 20 -5 13 -11 17 -21 11 -10 -7 -3 -19
32 -53 34 -32 44 -47 37 -58 -8 -12 -18 -6 -53 33 -46 50 -57 56 -57 33 0 -8
9 -18 20 -21 11 -3 20 -13 20 -20 0 -26 -21 -27 -43 -1 -26 29 -37 33 -37 11
0 -8 -4 -15 -10 -15 -19 0 -10 -20 30 -62 40 -43 40 -43 20 -63 -20 -19 -20
-19 -43 3 -72 71 -98 94 -104 88 -4 -3 2 -13 13 -20 15 -12 17 -17 6 -27 -10
-11 -18 -7 -43 20 -21 23 -34 30 -41 23 -7 -7 -4 -14 11 -22 23 -12 20 -30 -5
-30 -8 0 -14 7 -14 15 0 8 -6 15 -13 15 -8 0 -18 10 -24 22 -6 14 -12 18 -17
10 -4 -7 8 -26 28 -46 19 -18 32 -36 29 -40 -10 -10 -33 -7 -33 4 0 15 -41 53
-48 45 -4 -4 1 -12 11 -19 22 -17 22 -19 -12 -56 -24 -27 -29 -29 -35 -14 -4
9 -9 14 -13 11 -3 -4 0 -13 6 -21 13 -15 7 -36 -10 -36 -5 0 -9 7 -9 16 0 14
-2 15 -17 3 -15 -13 -15 -12 -4 11 11 23 11 23 -3 7 -15 -19 -11 -51 5 -42 12
8 2 -34 -16 -61 -8 -13 -19 -23 -23 -23 -22 4 -20 -4 7 -33 17 -18 31 -42 31
-52 0 -18 -1 -18 -20 -1 -11 10 -22 26 -25 36 -4 10 -9 18 -13 18 -25 -4 -35
2 -24 13 7 7 12 17 12 22 0 6 -4 4 -10 -4 -5 -8 -12 -12 -15 -9 -12 13 162
319 258 453 447 630 981 1058 1657 1328 418 168 845 263 1305 292 95 6 430 -3
545 -14z m-15 -79 c3 -5 1 -13 -5 -16 -8 -5 -7 -12 2 -23 10 -14 10 -15 -2 -5
-7 7 -14 22 -15 33 -2 21 10 27 20 11z m-771 -142 c-7 -12 -52 -16 -48 -5 2 6
15 11 28 11 13 0 22 -3 20 -6z m1185 -16 c2 -2 -3 -3 -11 -3 -9 0 -19 7 -22
16 -6 15 -4 15 11 3 10 -7 20 -15 22 -16z m107 -30 c-7 -7 -26 7 -26 19 0 6 6
6 15 -2 9 -7 13 -15 11 -17z m-1666 -47 c0 -3 -4 -8 -10 -11 -5 -3 -10 -1 -10
4 0 6 5 11 10 11 6 0 10 -2 10 -4z m1889 -37 c-22 -13 -31 -11 -17 5 7 8 17
12 22 9 4 -3 2 -9 -5 -14z m-1579 -14 c-6 -8 -8 -20 -4 -27 5 -10 4 -10 -6 -1
-14 13 -7 43 11 43 8 0 8 -4 -1 -15z m50 -9 c0 -2 -8 -10 -17 -17 -16 -13 -17
-12 -4 4 13 16 21 21 21 13z m65 -26 c3 -5 1 -10 -4 -10 -6 0 -11 5 -11 10 0
6 2 10 4 10 3 0 8 -4 11 -10z m-35 -4 c0 -2 -9 -6 -20 -9 -11 -3 -20 -1 -20 4
0 5 9 9 20 9 11 0 20 -2 20 -4z m-69 -29 c-10 -9 -11 -8 -5 6 3 10 9 15 12 12
3 -3 0 -11 -7 -18z m-23 -62 c-3 -3 -9 2 -12 12 -6 14 -5 15 5 6 7 -7 10 -15
7 -18z m-58 -24 c0 -5 -9 -11 -21 -14 -16 -4 -18 -3 -8 9 13 16 29 19 29 5z
m-183 -143 c-3 -8 -6 -5 -6 6 -1 11 2 17 5 13 3 -3 4 -12 1 -19z m3119 -346
c126 -99 166 -134 209 -182 26 -30 53 -57 59 -60 6 -3 11 -10 11 -17 0 -6 28
-41 63 -76 60 -63 70 -77 54 -77 -12 0 -72 58 -72 69 0 6 -5 11 -11 11 -5 0
-7 5 -4 10 3 6 0 10 -7 10 -15 0 -48 35 -48 50 0 6 -7 13 -15 16 -8 4 -15 12
-15 20 0 8 -6 14 -13 14 -7 0 -17 10 -22 23 -6 12 -17 21 -24 19 -7 -1 -10 2
-7 7 3 5 -16 27 -42 49 -83 72 -96 83 -137 119 -42 37 -29 34 21 -5z m107
-139 c47 -54 17 -37 -58 33 -68 64 -69 65 -20 33 28 -18 63 -47 78 -66z
m-1823 24 c14 -6 29 -9 33 -8 5 1 6 -3 2 -8 -8 -13 -66 -9 -62 4 2 6 -12 15
-32 22 l-36 12 35 -6 c19 -3 46 -10 60 -16z m1726 -5 c-4 -3 -14 2 -24 12 -16
18 -16 18 6 6 13 -6 21 -14 18 -18z m-1649 -18 c-3 -3 -12 -4 -19 -1 -8 3 -5
6 6 6 11 1 17 -2 13 -5z m55 -14 c6 0 6 -6 -2 -15 -7 -8 -18 -15 -24 -15 -6 0
-5 4 3 9 11 7 10 11 -5 21 -18 11 -18 11 -1 6 10 -3 23 -6 29 -6z m1678 -42
c0 -13 -5 -9 -31 19 l-24 26 27 -19 c15 -10 28 -22 28 -26z m-4419 -15 l34
-36 -42 33 c-24 18 -43 35 -43 37 0 12 21 -2 51 -34z m310 20 c13 -16 12 -17
-3 -4 -10 7 -18 15 -18 17 0 8 8 3 21 -13z m2514 2 c22 -8 38 -15 35 -15 -3
-1 -22 -3 -42 -5 -32 -3 -38 -1 -38 15 0 11 1 20 3 20 1 0 20 -7 42 -15z
m1671 -21 c28 -29 29 -34 9 -34 -8 0 -15 6 -15 14 0 8 -7 16 -15 20 -8 3 -15
10 -15 16 0 16 11 12 36 -16z m-1570 -22 c-6 -6 -56 10 -56 18 0 5 13 3 30 -3
16 -6 28 -13 26 -15z m-3012 -4 c25 -35 19 -42 -13 -16 -15 13 -26 26 -24 31
8 13 22 7 37 -15z m2670 13 c3 -4 -6 -6 -19 -3 -14 2 -25 6 -25 8 0 8 39 4 44
-5z m1866 -7 c0 -8 -4 -12 -10 -9 -5 3 -10 10 -10 16 0 5 5 9 10 9 6 0 10 -7
10 -16z m-1813 -10 c-3 -3 -12 -4 -19 -1 -8 3 -5 6 6 6 11 1 17 -2 13 -5z m53
-14 c18 -12 2 -12 -25 0 -13 6 -15 9 -5 9 8 0 22 -4 30 -9z m310 -10 c0 -5 -2
-10 -4 -10 -3 0 -8 5 -11 10 -3 6 -1 10 4 10 6 0 11 -4 11 -10z m1540 -6 c0
-8 -4 -12 -10 -9 -5 3 -10 10 -10 16 0 5 5 9 10 9 6 0 10 -7 10 -16z m-1770
-4 c0 -5 -2 -10 -4 -10 -3 0 -8 5 -11 10 -3 6 -1 10 4 10 6 0 11 -4 11 -10z
m1740 -20 c0 -5 -2 -10 -4 -10 -3 0 -8 5 -11 10 -3 6 -1 10 4 10 6 0 11 -4 11
-10z m60 -6 c0 -8 -4 -12 -10 -9 -5 3 -10 10 -10 16 0 5 5 9 10 9 6 0 10 -7
10 -16z m-30 -24 c0 -5 -2 -10 -4 -10 -3 0 -8 5 -11 10 -3 6 -1 10 4 10 6 0
11 -4 11 -10z m107 -67 c-8 -7 -67 55 -67 70 0 6 16 -5 36 -26 20 -21 34 -40
31 -44z m-77 37 c0 -5 -4 -10 -10 -10 -5 0 -10 5 -10 10 0 6 5 10 10 10 6 0
10 -4 10 -10z m50 -61 c0 -6 -4 -7 -10 -4 -5 3 -10 11 -10 16 0 6 5 7 10 4 6
-3 10 -11 10 -16z m112 -41 c18 -18 24 -38 12 -38 -10 0 -84 82 -84 93 0 9 19
-5 72 -55z m28 25 c0 -9 3 -14 6 -11 3 4 24 -12 46 -35 23 -23 45 -41 49 -39
5 1 9 -3 9 -10 0 -6 17 -29 38 -49 75 -76 86 -89 78 -96 -4 -4 -16 2 -26 15
-10 12 -23 22 -29 22 -6 0 -11 9 -11 20 0 13 -5 18 -15 14 -8 -4 -15 -2 -15 4
0 5 -37 46 -81 90 -48 46 -79 85 -75 91 10 15 26 4 26 -16z m-190 7 c0 -5 -2
-10 -4 -10 -3 0 -8 5 -11 10 -3 6 -1 10 4 10 6 0 11 -4 11 -10z m75 -10 c3 -5
1 -10 -4 -10 -6 0 -11 5 -11 10 0 6 2 10 4 10 3 0 8 -4 11 -10z m-105 -31 c0
-6 -4 -7 -10 -4 -5 3 -10 11 -10 16 0 6 5 7 10 4 6 -3 10 -11 10 -16z m75 2
c3 -5 1 -12 -5 -16 -5 -3 -10 1 -10 9 0 18 6 21 15 7z m65 -6 c0 -8 -4 -15
-10 -15 -5 0 -10 7 -10 15 0 8 5 15 10 15 6 0 10 -7 10 -15z m31 -28 c-1 -12
-15 -9 -19 4 -3 6 1 10 8 8 6 -3 11 -8 11 -12z m129 -77 c0 -8 3 -10 7 -7 5 6
41 -34 35 -40 -5 -6 -17 2 -14 10 1 4 -2 7 -7 7 -17 0 -112 99 -106 110 8 12
85 -61 85 -80z m-2592 50 c300 -44 571 -148 837 -321 139 -91 226 -162 352
-290 170 -173 269 -307 370 -499 132 -250 223 -573 223 -791 0 -55 -3 -69 -15
-69 -11 0 -15 12 -15 50 0 88 -30 269 -65 391 -127 439 -384 812 -750 1086
-507 380 -1146 513 -1785 373 -329 -73 -722 -287 -967 -529 -40 -39 -73 -75
-73 -81 0 -5 -25 -36 -56 -69 -243 -259 -434 -703 -475 -1103 -9 -93 -16 -128
-26 -128 -25 0 -13 204 23 379 24 116 100 336 159 456 52 108 135 241 248 399
32 43 57 84 57 91 0 15 22 25 52 25 13 0 65 43 137 113 129 125 197 177 351
265 265 152 539 238 865 271 128 14 397 4 553 -19z m2432 -5 c0 -8 -4 -15 -10
-15 -5 0 -10 7 -10 15 0 8 5 15 10 15 6 0 10 -7 10 -15z m60 -1 c0 -8 -5 -12
-10 -9 -6 4 -8 11 -5 16 9 14 15 11 15 -7z m-130 -4 c0 -5 -2 -10 -4 -10 -3 0
-8 5 -11 10 -3 6 -1 10 4 10 6 0 11 -4 11 -10z m167 -36 c-9 -9 -28 6 -21 18
4 6 10 6 17 -1 6 -6 8 -13 4 -17z m-127 6 c0 -5 -4 -10 -10 -10 -5 0 -10 5
-10 10 0 6 5 10 10 10 6 0 10 -4 10 -10z m65 0 c3 -5 -1 -10 -9 -10 -9 0 -16
5 -16 10 0 6 4 10 9 10 6 0 13 -4 16 -10z m-761 -32 c34 -48 2 -118 -54 -118
-58 0 -93 78 -53 122 24 27 87 24 107 -4z m726 2 c0 -5 -4 -10 -10 -10 -5 0
-10 5 -10 10 0 6 5 10 10 10 6 0 10 -4 10 -10z m65 0 c-3 -5 -10 -10 -16 -10
-5 0 -9 5 -9 10 0 6 7 10 16 10 8 0 12 -4 9 -10z m65 0 c0 -5 -7 -10 -15 -10
-8 0 -15 5 -15 10 0 6 7 10 15 10 8 0 15 -4 15 -10z m-100 -30 c0 -5 -4 -10
-10 -10 -5 0 -10 5 -10 10 0 6 5 10 10 10 6 0 10 -4 10 -10z m70 0 c0 -5 -7
-10 -15 -10 -8 0 -15 5 -15 10 0 6 7 10 15 10 8 0 15 -4 15 -10z m60 -1 c0 -7
8 -18 17 -25 10 -7 15 -16 11 -20 -8 -7 -58 35 -58 49 0 4 7 7 15 7 8 0 15 -5
15 -11z m70 -21 c0 -16 -3 -19 -11 -11 -6 6 -8 16 -5 22 11 17 16 13 16 -11z
m-170 -19 c0 -5 -4 -9 -10 -9 -5 0 -10 7 -10 16 0 8 5 12 10 9 6 -3 10 -10 10
-16z m68 10 c-2 -6 -8 -10 -13 -10 -5 0 -11 4 -13 10 -2 6 4 11 13 11 9 0 15
-5 13 -11z m151 -35 c18 -18 21 -28 13 -36 -8 -8 -13 -6 -18 8 -4 10 -13 23
-21 27 -14 9 -18 27 -5 27 4 0 18 -12 31 -26z m-5790 -15 c16 -26 0 -49 -22
-31 -8 7 -17 9 -20 5 -9 -8 -9 20 -1 41 7 19 25 12 43 -15z m5535 10 c-3 -5
-10 -7 -15 -3 -5 3 -7 10 -3 15 3 5 10 7 15 3 5 -3 7 -10 3 -15z m70 6 c3 -9
0 -15 -9 -15 -8 0 -15 7 -15 15 0 8 4 15 9 15 5 0 11 -7 15 -15z m66 -12 c0
-13 -3 -13 -15 -3 -8 7 -12 16 -9 21 8 13 24 1 24 -18z m70 8 c0 -4 -3 -11 -7
-14 -8 -9 -34 13 -28 24 6 9 35 1 35 -10z m-2790 -22 c120 -14 218 -36 348
-75 105 -32 269 -101 260 -109 -2 -2 -46 13 -98 34 -102 41 -240 82 -360 107
-101 21 -518 31 -633 15 -176 -26 -418 -102 -581 -183 -411 -206 -745 -566
-916 -985 -39 -96 -52 -103 -20 -11 184 526 631 960 1165 1131 106 34 273 73
345 80 82 9 412 6 490 -4z m2615 -9 c3 -5 2 -10 -4 -10 -5 0 -13 5 -16 10 -3
6 -2 10 4 10 5 0 13 -4 16 -10z m66 -3 c-1 -12 -15 -9 -19 4 -3 6 1 10 8 8 6
-3 11 -8 11 -12z m137 -5 c2 -7 -3 -12 -12 -12 -9 0 -16 7 -16 16 0 17 22 14
28 -4z m-49 -5 c6 -8 8 -17 5 -20 -7 -7 -44 14 -44 25 0 13 27 9 39 -5z
m-5684 -7 c3 -5 2 -17 -3 -26 -8 -14 -10 -14 -21 0 -13 15 -8 36 9 36 5 0 12
-4 15 -10z m5805 -10 c0 -11 -4 -20 -9 -20 -5 0 -11 9 -14 20 -3 13 0 20 9 20
8 0 14 -9 14 -20z m-240 0 c0 -5 -4 -10 -10 -10 -5 0 -10 5 -10 10 0 6 5 10
10 10 6 0 10 -4 10 -10z m70 2 c0 -13 -12 -22 -22 -16 -10 6 -1 24 13 24 5 0
9 -4 9 -8z m130 -18 c0 -16 -16 -19 -25 -4 -8 13 4 32 16 25 5 -4 9 -13 9 -21z
m105 17 c7 -12 -12 -24 -25 -16 -11 7 -4 25 10 25 5 0 11 -4 15 -9z m-6055
-16 c19 -23 -3 -43 -24 -22 -9 9 -16 20 -16 26 0 16 26 13 40 -4z m76 -41 c-6
-16 -9 -16 -29 4 -19 19 -20 24 -7 32 20 12 45 -12 36 -36z m136 14 c-15 -15
-26 -4 -18 18 5 13 9 15 18 6 9 -9 9 -15 0 -24z m-62 7 c13 -16 6 -35 -15 -35
-15 0 -24 19 -17 38 6 16 17 15 32 -3z m5565 5 c3 -5 1 -10 -4 -10 -6 0 -11 5
-11 10 0 6 2 10 4 10 3 0 8 -4 11 -10z m69 -11 c-3 -5 -10 -7 -15 -3 -5 3 -7
10 -3 15 3 5 10 7 15 3 5 -3 7 -10 3 -15z m66 6 c0 -8 -4 -15 -10 -15 -5 0
-10 7 -10 15 0 8 5 15 10 15 6 0 10 -7 10 -15z m60 5 c0 -5 -6 -10 -14 -10 -8
0 -18 5 -21 10 -3 6 3 10 14 10 12 0 21 -4 21 -10z m120 -5 c0 -8 -7 -15 -15
-15 -8 0 -15 7 -15 15 0 8 7 15 15 15 8 0 15 -7 15 -15z m48 -3 c2 -7 -3 -12
-12 -12 -9 0 -16 7 -16 16 0 17 22 14 28 -4z m-98 -2 c0 -5 -4 -10 -10 -10 -5
0 -10 5 -10 10 0 6 5 10 10 10 6 0 10 -4 10 -10z m-5935 -48 c-3 -9 0 -12 9
-9 18 7 40 -18 31 -33 -5 -8 -21 1 -46 26 -27 26 -35 40 -27 45 16 10 40 -11
33 -29z m5890 8 c-5 -8 -11 -8 -17 -2 -6 6 -7 16 -3 22 5 8 11 8 17 2 6 -6 7
-16 3 -22z m-5818 5 c3 -9 3 -18 1 -21 -9 -9 -38 8 -38 22 0 19 29 18 37 -1z
m69 -22 c-7 -17 -8 -17 -17 0 -12 21 -2 44 13 29 6 -6 8 -19 4 -29z m5634 27
c0 -5 -4 -10 -9 -10 -6 0 -13 5 -16 10 -3 6 1 10 9 10 9 0 16 -4 16 -10z m60
0 c0 -5 -4 -10 -9 -10 -6 0 -13 5 -16 10 -3 6 1 10 9 10 9 0 16 -4 16 -10z
m101 -3 c-1 -12 -15 -9 -19 4 -3 6 1 10 8 8 6 -3 11 -8 11 -12z m40 0 c-1 -12
-15 -9 -19 4 -3 6 1 10 8 8 6 -3 11 -8 11 -12z m49 -2 c0 -9 -6 -12 -15 -9 -8
4 -15 10 -15 15 0 5 7 9 15 9 8 0 15 -7 15 -15z m-6222 -32 c2 -7 -3 -13 -12
-13 -8 0 -20 -10 -27 -21 -9 -17 -13 -19 -20 -8 -13 21 -11 30 9 27 12 -2 16
3 14 15 -4 21 28 21 36 0z m61 3 c9 -10 9 -16 1 -21 -13 -8 -42 14 -34 26 8
13 20 11 33 -5z m5806 4 c3 -5 1 -10 -4 -10 -6 0 -11 5 -11 10 0 6 2 10 4 10
3 0 8 -4 11 -10z m70 0 c3 -5 2 -10 -4 -10 -5 0 -13 5 -16 10 -3 6 -2 10 4 10
5 0 13 -4 16 -10z m63 -1 c-2 -6 -8 -10 -13 -10 -5 0 -11 4 -13 10 -2 6 4 11
13 11 9 0 15 -5 13 -11z m53 -2 c-1 -12 -15 -9 -19 4 -3 6 1 10 8 8 6 -3 11
-8 11 -12z m64 4 c7 -12 -12 -24 -25 -16 -11 7 -4 25 10 25 5 0 11 -4 15 -9z
m149 -23 c9 -17 14 -34 10 -37 -7 -7 -43 40 -44 57 0 23 18 12 34 -20z m-5957
3 c7 -10 9 -22 6 -25 -9 -9 -44 25 -37 35 8 14 18 11 31 -10z m5853 9 c0 -5
-4 -10 -10 -10 -5 0 -10 5 -10 10 0 6 5 10 10 10 6 0 10 -4 10 -10z m50 0 c0
-5 -7 -10 -15 -10 -8 0 -15 5 -15 10 0 6 7 10 15 10 8 0 15 -4 15 -10z m-5379
-10 c31 -17 18 -70 -17 -70 -14 0 -44 27 -44 40 0 9 28 40 36 40 3 0 14 -5 25
-10z m-928 -7 c4 -3 -3 -17 -15 -30 -21 -23 -21 -23 -2 -37 15 -12 16 -17 7
-27 -10 -10 -14 -8 -20 7 -4 10 -14 25 -22 31 -14 11 -14 14 -1 22 8 5 18 7
22 5 4 -3 8 4 8 15 0 21 11 27 23 14z m123 -4 c10 -17 -13 -36 -27 -22 -12 12
-4 33 11 33 5 0 12 -5 16 -11z m84 -25 c0 -18 -24 -18 -39 -1 -15 19 7 41 26
26 7 -7 13 -18 13 -25z m96 9 c-7 -7 -26 7 -26 19 0 6 6 6 15 -2 9 -7 13 -15
11 -17z m5759 17 c3 -5 1 -10 -4 -10 -6 0 -11 5 -11 10 0 6 2 10 4 10 3 0 8
-4 11 -10z m365 -21 c0 -5 -7 -9 -15 -9 -9 0 -15 9 -15 21 0 18 2 19 15 9 8
-7 15 -16 15 -21z m-310 11 c0 -5 -2 -10 -4 -10 -3 0 -8 5 -11 10 -3 6 -1 10
4 10 6 0 11 -4 11 -10z m62 -5 c0 -5 -5 -11 -11 -13 -6 -2 -11 4 -11 13 0 9 5
15 11 13 6 -2 11 -8 11 -13z m57 -11 c3 -16 1 -17 -13 -5 -19 16 -21 34 -3 29
6 -3 14 -13 16 -24z m38 12 c-4 -9 3 -17 16 -21 14 -4 17 -8 9 -12 -13 -5 -52
23 -52 39 0 4 7 8 16 8 10 0 14 -6 11 -14z m53 -2 c0 -17 -22 -14 -28 4 -2 7
3 12 12 12 9 0 16 -7 16 -16z m130 -5 c0 -6 -4 -7 -10 -4 -5 3 -10 11 -10 16
0 6 5 7 10 4 6 -3 10 -11 10 -16z m-6173 -25 c-9 -10 -38 16 -31 28 4 6 13 4
22 -6 9 -8 13 -19 9 -22z m88 16 c16 -17 16 -20 3 -15 -9 4 -19 13 -22 21 -7
19 -2 18 19 -6z m2719 -2 c7 -13 21 -63 30 -113 29 -160 156 -980 261 -1685
57 -382 65 -430 75 -430 9 0 45 136 135 510 177 732 239 945 275 945 28 0 81
-269 205 -1040 29 -181 55 -323 58 -315 3 8 54 159 113 335 116 348 161 472
174 480 6 4 81 -283 117 -450 l9 -40 334 -5 c330 -5 335 -5 367 -28 38 -27 50
-63 35 -97 -23 -49 -76 -55 -518 -55 -373 0 -402 -1 -409 -17 -17 -46 -173
-460 -178 -473 -3 -8 -6 -3 -6 13 -1 28 -15 36 -25 15 -5 -10 -7 -10 -12 0 -3
6 -10 12 -14 12 -16 0 -60 -74 -60 -99 0 -82 -37 93 -136 639 -41 228 -77 424
-81 434 -5 18 -6 18 -18 -5 -17 -32 -90 -323 -165 -654 -34 -148 -75 -331 -92
-405 -16 -74 -36 -148 -43 -165 l-13 -30 -1 26 c-1 23 -6 27 -43 32 -24 3 -46
3 -50 -1 -3 -4 -8 -34 -9 -67 -2 -33 -5 -64 -8 -70 -7 -13 -147 831 -215 1301
-75 510 -147 978 -152 983 -2 2 -6 -2 -8 -10 -9 -25 -95 -497 -161 -884 -96
-561 -148 -852 -200 -1120 -26 -132 -49 -257 -52 -278 -5 -30 -8 -35 -19 -26
-17 14 -18 5 -4 -22 6 -11 7 -19 1 -19 -5 0 -7 -9 -4 -20 3 -11 1 -20 -4 -20
-6 0 -9 16 -7 36 3 40 -11 51 -52 37 -30 -10 -33 -19 -35 -125 -1 -37 -5 -65
-10 -62 -5 3 -9 13 -9 23 0 10 -18 108 -40 217 -21 110 -73 386 -115 614 -90
488 -142 745 -157 773 -10 19 -11 18 -25 -14 -13 -30 -94 -353 -124 -492 -8
-37 -19 -62 -31 -68 -11 -6 -184 -9 -461 -7 -400 3 -445 5 -474 21 -57 30 -53
94 6 134 23 16 66 19 426 23 l399 5 88 395 c115 524 135 603 168 677 16 35 31
63 34 63 9 0 44 -131 70 -265 14 -71 80 -425 146 -785 66 -360 125 -673 131
-694 9 -33 13 -37 21 -23 5 9 29 135 53 280 195 1171 363 2078 396 2138 22 41
91 51 113 17z m-3069 -18 c-5 -8 -11 -8 -17 -2 -6 6 -7 16 -3 22 5 8 11 8 17
2 6 -6 7 -16 3 -22z m70 20 c10 -16 -16 -43 -28 -31 -11 11 -2 41 12 41 5 0
13 -5 16 -10z m74 -14 c8 -10 8 -16 -2 -25 -11 -8 -18 -7 -31 7 -16 19 -13 32
9 32 7 0 18 -6 24 -14z m6281 -20 c-13 -13 -35 7 -25 24 5 8 11 8 21 -1 10 -8
12 -15 4 -23z m-6205 14 c4 -6 1 -17 -5 -26 -10 -11 -16 -12 -26 -3 -11 9 -11
15 -3 25 14 17 25 18 34 4z m6113 -9 c3 -8 -1 -12 -9 -9 -7 2 -15 10 -17 17
-3 8 1 12 9 9 7 -2 15 -10 17 -17z m42 4 c0 -8 -4 -15 -9 -15 -13 0 -22 16
-14 24 11 11 23 6 23 -9z m-6066 -14 c12 -13 14 -21 6 -26 -13 -8 -52 24 -44
36 8 14 19 11 38 -10z m-397 -11 c-5 -18 4 -25 26 -21 12 2 3 -22 -10 -26 -13
-5 -46 44 -38 57 11 18 27 10 22 -10z m137 -10 c22 -23 27 -33 18 -42 -8 -8
-14 -5 -23 15 -6 14 -20 28 -31 30 -11 3 -17 10 -13 16 9 16 17 13 49 -19z
m55 16 c9 -10 7 -16 -5 -27 -13 -10 -17 -10 -24 1 -9 14 -3 40 10 40 4 0 13
-6 19 -14z m121 -78 c1 -21 -33 2 -42 27 -1 6 -8 10 -15 10 -19 0 -26 13 -19
32 6 15 12 12 41 -22 19 -22 34 -43 35 -47z m6084 51 c-8 -13 -24 -1 -24 18 0
13 3 13 15 3 8 -7 12 -16 9 -21z m51 0 c-6 -9 -35 -1 -35 10 0 4 3 11 7 14 8
9 34 -13 28 -24z m45 10 c0 -5 -7 -9 -15 -9 -15 0 -20 12 -9 23 8 8 24 -1 24
-14z m-6157 -13 c0 -11 4 -15 13 -12 8 3 14 1 14 -4 0 -6 -6 -10 -13 -10 -18
0 -49 34 -40 44 11 11 28 0 26 -18z m6012 14 c3 -5 1 -10 -4 -10 -6 0 -11 5
-11 10 0 6 2 10 4 10 3 0 8 -4 11 -10z m190 0 c3 -5 -3 -10 -15 -10 -12 0 -18
5 -15 10 3 6 10 10 15 10 5 0 12 -4 15 -10z m-6456 -26 c-14 -18 -24 -11 -15
11 3 9 11 13 16 10 8 -5 7 -11 -1 -21z m-104 -11 c10 -16 33 -42 53 -59 23
-20 31 -34 23 -38 -6 -4 -14 0 -17 8 -3 9 -11 13 -17 9 -5 -3 -7 -2 -4 4 4 5
-5 16 -18 23 -14 7 -25 22 -25 32 0 10 -5 17 -12 16 -6 -2 -14 5 -16 15 -5 26
14 20 33 -10z m251 6 c10 -17 -13 -36 -27 -22 -12 12 -4 33 11 33 5 0 12 -5
16 -11z m6244 -10 c0 -5 -4 -9 -10 -9 -5 0 -10 7 -10 16 0 8 5 12 10 9 6 -3
10 -10 10 -16z m37 -5 c-9 -9 -28 6 -21 18 4 6 10 6 17 -1 6 -6 8 -13 4 -17z
m50 0 c-3 -4 -14 -3 -24 0 -15 6 -15 8 -3 16 16 10 39 -4 27 -16z m-6437 1
c10 -12 10 -19 2 -27 -9 -9 -15 -7 -26 7 -23 32 0 49 24 20z m6215 5 c5 -8 12
-7 22 2 12 10 17 9 25 -6 6 -10 19 -27 29 -37 22 -22 25 -33 5 -26 -7 3 -18 1
-24 -5 -14 -14 -49 7 -67 42 -8 16 -15 31 -15 35 0 9 19 5 25 -5z m90 0 c3 -5
-1 -10 -9 -10 -9 0 -16 5 -16 10 0 6 4 10 9 10 6 0 13 -4 16 -10z m-6375 -15
c0 -8 4 -15 8 -15 5 0 17 -7 28 -15 16 -12 16 -14 3 -15 -9 0 -26 8 -37 19
-23 19 -29 41 -12 41 6 0 10 -7 10 -15z m780 -6 c107 -61 105 -204 -5 -266
-69 -39 -129 -27 -190 37 -27 28 -30 38 -30 93 0 48 5 69 22 93 45 63 134 82
203 43z m-898 -21 c-15 -15 -26 -4 -18 18 5 13 9 15 18 6 9 -9 9 -15 0 -24z
m249 -9 c-18 -15 -18 -18 -5 -23 9 -3 20 -4 25 0 5 3 9 -7 9 -21 0 -21 4 -26
16 -21 23 9 37 -3 24 -19 -7 -8 -8 -20 -4 -27 4 -7 -6 -2 -22 12 -43 37 -84
80 -76 80 4 0 0 5 -8 10 -11 7 -12 12 -4 20 9 9 14 9 18 1 4 -6 12 -11 18 -11
7 0 7 4 -1 13 -15 18 -2 30 17 15 12 -10 11 -15 -7 -29z m204 21 c3 -5 1 -10
-4 -10 -6 0 -11 5 -11 10 0 6 2 10 4 10 3 0 8 -4 11 -10z m6065 0 c0 -5 -4
-10 -10 -10 -5 0 -10 5 -10 10 0 6 5 10 10 10 6 0 10 -4 10 -10z m70 -1 c0 -5
-11 -9 -25 -9 -14 0 -25 4 -25 9 0 5 11 9 25 9 14 0 25 -4 25 -9z m50 1 c0 -5
-7 -10 -15 -10 -8 0 -15 5 -15 10 0 6 7 10 15 10 8 0 15 -4 15 -10z m-6613
-24 c-4 -9 2 -17 14 -21 19 -6 18 -25 -2 -25 -6 0 -8 4 -5 9 3 5 -3 11 -14 14
-13 3 -18 10 -14 21 3 9 11 16 16 16 6 0 8 -7 5 -14z m-131 -12 c-4 -12 -1
-14 14 -9 25 8 25 9 -5 -53 -14 -29 -25 -59 -25 -67 0 -8 -4 -15 -8 -15 -7 0
-44 -90 -44 -107 0 -4 -6 -16 -15 -25 -8 -9 -13 -23 -11 -30 3 -7 -1 -17 -7
-23 -11 -8 -41 -82 -79 -189 -3 -10 -8 -17 -11 -14 -5 4 62 198 93 270 12 28
17 50 12 53 -6 4 -10 11 -10 17 0 7 5 7 14 -1 10 -9 15 -8 19 3 4 9 -1 20 -11
26 -14 10 -14 11 -1 7 21 -7 57 62 38 74 -9 5 -7 19 10 53 19 43 41 66 27 30z
m6649 6 c3 -5 -1 -10 -9 -10 -9 0 -16 5 -16 10 0 6 4 10 9 10 6 0 13 -4 16
-10z m50 0 c3 -5 2 -10 -4 -10 -5 0 -13 5 -16 10 -3 6 -2 10 4 10 5 0 13 -4
16 -10z m55 0 c0 -5 -7 -10 -15 -10 -8 0 -15 5 -15 10 0 6 7 10 15 10 8 0 15
-4 15 -10z m-6450 -24 c0 -2 -7 -7 -16 -10 -8 -3 -12 -2 -9 4 6 10 25 14 25 6z
m6365 -24 c-8 -8 -25 10 -19 20 4 6 9 5 15 -3 4 -7 6 -15 4 -17z m53 9 c3 -8
-1 -12 -9 -9 -7 2 -15 10 -17 17 -3 8 1 12 9 9 7 -2 15 -10 17 -17z m59 -8 c7
-15 11 -28 9 -31 -8 -7 -27 9 -21 18 3 4 -2 10 -10 14 -18 7 -20 26 -2 26 6 0
18 -12 24 -27z m-157 7 c0 -5 -2 -10 -4 -10 -3 0 -8 5 -11 10 -3 6 -1 10 4 10
6 0 11 -4 11 -10z m-6563 -26 c12 -15 20 -31 16 -37 -4 -6 -11 -2 -16 11 -6
12 -13 22 -17 22 -5 0 -10 7 -14 15 -8 23 6 18 31 -11z m123 22 c0 -3 -4 -8
-10 -11 -5 -3 -10 -1 -10 4 0 6 5 11 10 11 6 0 10 -2 10 -4z m80 -11 c7 -9 8
-15 2 -15 -5 0 -12 7 -16 15 -3 8 -4 15 -2 15 2 0 9 -7 16 -15z m-115 -25 c14
-16 16 -23 7 -32 -15 -15 -53 17 -45 38 7 19 17 18 38 -6z m65 -2 c0 -6 -6 -5
-15 2 -8 7 -15 14 -15 16 0 2 7 1 15 -2 8 -4 15 -11 15 -16z m6430 12 c0 -5
-4 -10 -10 -10 -5 0 -10 5 -10 10 0 6 5 10 10 10 6 0 10 -4 10 -10z m95 0 c3
-5 -1 -10 -9 -10 -9 0 -16 5 -16 10 0 6 4 10 9 10 6 0 13 -4 16 -10z m-6504
-43 c-13 -13 -26 -3 -16 12 3 6 11 8 17 5 6 -4 6 -10 -1 -17z m6519 13 c0 -5
-4 -10 -10 -10 -5 0 -10 5 -10 10 0 6 5 10 10 10 6 0 10 -4 10 -10z m96 -94
c25 -54 44 -100 41 -102 -4 -4 -47 81 -78 154 -8 17 -17 32 -21 32 -5 0 -8 5
-8 11 0 30 26 -6 66 -95z m-182 79 c3 -8 1 -15 -3 -15 -5 0 -11 7 -15 15 -3 8
-1 15 3 15 5 0 11 -7 15 -15z m43 9 c-3 -3 -12 -4 -19 -1 -8 3 -5 6 6 6 11 1
17 -2 13 -5z m-6659 -35 c-7 -4 -16 -3 -20 4 -11 18 2 29 18 16 12 -10 12 -14
2 -20z m52 21 c0 -5 -5 -10 -11 -10 -5 0 -7 5 -4 10 3 6 8 10 11 10 2 0 4 -4
4 -10z m88 -25 c-2 -20 -5 -22 -18 -12 -8 6 -17 13 -19 14 -2 1 2 9 9 18 16
20 30 10 28 -20z m177 25 c3 -5 1 -10 -4 -10 -6 0 -11 5 -11 10 0 6 2 10 4 10
3 0 8 -4 11 -10z m-95 -21 c0 -5 -10 -9 -21 -9 -18 0 -19 2 -9 15 12 15 30 12
30 -6z m6500 0 c0 -5 -4 -9 -10 -9 -5 0 -10 7 -10 16 0 8 5 12 10 9 6 -3 10
-10 10 -16z m-50 1 c0 -5 -2 -10 -4 -10 -3 0 -8 5 -11 10 -3 6 -1 10 4 10 6 0
11 -4 11 -10z m-6620 -15 c10 -12 10 -18 0 -31 -11 -13 -15 -13 -27 -1 -13 13
-8 47 7 47 4 0 13 -7 20 -15z m6300 -16 c19 -12 43 -31 54 -43 39 -44 60 -126
35 -141 -6 -4 -8 -13 -5 -21 3 -8 1 -14 -4 -14 -6 0 -10 -9 -10 -19 0 -24 -49
-66 -95 -81 -49 -16 -118 -5 -154 26 -16 13 -32 24 -36 24 -3 0 -18 -15 -33
-32 -15 -18 -49 -57 -76 -86 l-49 -52 -226 5 c-124 3 -230 10 -235 15 -7 7 23
11 80 12 49 1 118 3 154 4 36 2 104 3 152 3 l86 1 71 82 c56 64 70 86 64 102
-31 96 -7 168 72 217 41 26 111 25 155 -2z m400 -27 c0 -13 -3 -12 -15 4 -19
25 -19 40 0 24 8 -7 15 -20 15 -28z m-6780 3 c0 -8 -4 -17 -10 -20 -6 -3 -9 4
-8 19 2 25 18 26 18 1z m205 15 c-3 -5 -11 -10 -16 -10 -6 0 -7 5 -4 10 3 6
11 10 16 10 6 0 7 -4 4 -10z m6475 -11 c0 -6 -4 -7 -10 -4 -5 3 -10 11 -10 16
0 6 5 7 10 4 6 -3 10 -11 10 -16z m45 10 c11 -17 -1 -21 -15 -4 -8 9 -8 15 -2
15 6 0 14 -5 17 -11z m-6605 -17 c-1 -17 -19 -34 -29 -28 -8 5 -8 13 -1 27 10
18 30 18 30 1z m119 -23 c-16 -10 -23 -4 -14 10 3 6 11 8 17 5 6 -4 5 -9 -3
-15z m-201 -2 c7 -8 7 -17 -3 -30 -11 -15 -14 -15 -25 -2 -13 15 -7 45 8 45 5
0 14 -6 20 -13z m6707 3 c3 -5 1 -10 -4 -10 -6 0 -11 5 -11 10 0 6 2 10 4 10
3 0 8 -4 11 -10z m51 -17 c15 -20 18 -33 7 -33 -5 0 -13 11 -20 25 -13 29 -6
33 13 8z m-6639 -30 c-17 -18 -22 -8 -11 22 5 12 10 13 17 6 8 -8 6 -16 -6
-28z m-197 -5 c0 -16 -3 -19 -11 -11 -6 6 -8 16 -5 22 11 17 16 13 16 -11z
m132 -12 c16 -20 24 -37 18 -41 -6 -3 -10 -2 -10 2 0 5 -13 14 -29 20 -23 8
-29 15 -24 32 7 28 13 27 45 -13z m-90 -8 c7 -18 -2 -39 -13 -32 -12 7 -12 44
0 44 5 0 11 -6 13 -12z m-57 -8 c3 -5 1 -10 -4 -10 -6 0 -11 5 -11 10 0 6 2
10 4 10 3 0 8 -4 11 -10z m6875 0 c0 -5 -2 -10 -4 -10 -3 0 -8 5 -11 10 -3 6
-1 10 4 10 6 0 11 -4 11 -10z m-6793 -42 c-3 -7 -5 -2 -5 12 0 14 2 19 5 13 2
-7 2 -19 0 -25z m6869 -5 c33 -77 82 -223 76 -223 -4 0 -27 55 -52 122 -25 67
-46 125 -48 130 -2 4 -1 8 2 8 3 0 13 -17 22 -37z m-56 -1 c0 -15 -2 -15 -10
-2 -13 20 -13 33 0 25 6 -3 10 -14 10 -23z m-6906 -23 c-8 -13 -24 -1 -24 18
0 13 3 13 15 3 8 -7 12 -16 9 -21z m6003 9 c-3 -8 -6 -5 -6 6 -1 11 2 17 5 13
3 -3 4 -12 1 -19z m923 -34 c0 -8 -4 -12 -10 -9 -5 3 -10 13 -10 21 0 8 5 12
10 9 6 -3 10 -13 10 -21z m15 -35 c11 -17 -1 -21 -15 -4 -8 9 -8 15 -2 15 6 0
14 -5 17 -11z m-6725 -3 c0 -3 -4 -8 -10 -11 -5 -3 -10 -1 -10 4 0 6 5 11 10
11 6 0 10 -2 10 -4z m6744 -51 c3 -8 1 -15 -4 -15 -6 0 -10 7 -10 15 0 8 2 15
4 15 2 0 6 -7 10 -15z m-6379 -40 c33 -42 28 -63 -26 -105 -33 -27 -39 -29
-39 -13 0 11 -14 26 -35 37 -20 11 -32 22 -28 25 4 3 8 12 9 19 1 6 2 19 3 27
1 15 52 44 78 45 7 0 24 -16 38 -35z m193 -16 c2 -9 -5 -19 -14 -23 -21 -8
-50 17 -39 34 10 16 49 8 53 -11z m6281 -72 c0 -21 -1 -21 -9 -2 -12 28 -12
37 0 30 6 -3 10 -16 9 -28z m21 -67 c0 -13 -1 -13 -10 0 -5 8 -10 22 -10 30 0
13 1 13 10 0 5 -8 10 -22 10 -30z m-920 -6 c0 -8 -4 -12 -10 -9 -5 3 -10 10
-10 16 0 5 5 9 10 9 6 0 10 -7 10 -16z m-5525 -24 c10 -11 16 -20 13 -20 -3 0
-13 9 -23 20 -10 11 -16 20 -13 20 3 0 13 -9 23 -20z m6483 -100 c0 -8 -8 8
-18 35 -10 28 -18 57 -18 65 0 8 8 -7 18 -35 10 -27 18 -57 18 -65z m-945 48
c6 -21 2 -36 -7 -27 -10 11 -16 49 -8 49 5 0 12 -10 15 -22z m446 -4 c31 -39
26 -59 -28 -117 -27 -28 -78 -83 -114 -122 l-66 -70 -103 -5 c-195 -9 -531 -6
-535 6 -5 16 124 24 391 24 l229 0 80 82 81 81 -26 21 c-38 30 -44 66 -18 99
29 37 80 37 109 1z m-444 -64 c0 -13 -35 -15 -227 -18 -198 -3 -228 -1 -228
12 0 16 77 21 335 21 99 0 120 -3 120 -15z m-5269 -26 c42 -24 55 -46 35 -58
-4 -3 -12 -20 -16 -38 -4 -18 -9 -40 -11 -48 -2 -8 -10 -44 -17 -80 l-14 -65
88 -5 c91 -5 106 -10 94 -31 -6 -9 -58 -11 -207 -7 l-199 6 -47 -39 c-26 -22
-55 -39 -65 -39 -10 0 -32 13 -48 29 -83 83 32 213 124 141 14 -11 29 -29 32
-40 5 -17 15 -20 64 -20 l57 0 33 154 c31 144 37 166 48 166 3 0 24 -12 49
-26z m5291 -116 c-3 -8 -6 -5 -6 6 -1 11 2 17 5 13 3 -3 4 -12 1 -19z m-896
-158 c22 -106 37 -304 21 -281 -5 7 -13 57 -17 110 -6 82 -19 166 -49 316 -5
23 -3 21 10 -10 8 -22 24 -83 35 -135z m906 98 c-3 -8 -6 -5 -6 6 -1 11 2 17
5 13 3 -3 4 -12 1 -19z m-6374 -207 l-5 -116 94 -97 95 -98 360 0 360 0 6 68
c4 37 9 104 13 149 l7 83 36 6 c20 3 45 8 55 11 17 5 18 1 13 -33 -4 -22 -9
-77 -12 -124 -3 -47 -8 -100 -11 -118 -5 -33 -6 -34 -50 -30 -24 2 -44 0 -44
-4 0 -5 22 -8 48 -8 l48 0 -1 -77 0 -78 87 4 c75 3 89 1 94 -13 4 -9 4 -20 0
-23 -3 -3 -278 -5 -611 -4 l-606 2 2 -85 2 -86 359 0 360 0 20 25 c42 54 118
22 118 -50 0 -38 -28 -57 -80 -53 -33 2 -46 -4 -87 -40 -26 -23 -88 -76 -136
-117 l-88 -75 -78 0 c-77 0 -80 -1 -109 -34 -26 -30 -29 -39 -25 -87 9 -116
35 -262 72 -400 22 -79 38 -146 36 -147 -8 -8 -76 229 -100 347 -26 132 -56
343 -50 349 2 3 57 4 123 3 130 -2 123 -4 215 76 l37 33 -202 0 c-196 0 -204
-1 -230 -23 -33 -27 -35 -36 -25 -157 16 -186 79 -476 147 -674 16 -49 28 -91
26 -94 -6 -5 -100 285 -125 386 -31 122 -60 281 -76 425 -9 72 -18 140 -21
150 -5 16 12 17 268 17 l274 0 54 55 54 55 -362 0 -362 0 0 -57 c0 -65 24
-302 41 -408 28 -180 115 -490 190 -678 109 -275 297 -613 436 -783 32 -39 32
-42 15 -57 -22 -20 -14 -28 -139 158 -265 395 -444 820 -533 1265 -32 158 -60
391 -60 494 0 36 -5 68 -11 72 -8 4 -8 9 0 17 12 12 14 81 5 140 -7 37 -7 37
-55 37 -26 0 -51 5 -54 10 -6 10 17 14 68 10 16 -1 29 4 33 13 3 8 8 68 12
133 6 110 9 119 27 119 19 0 20 -5 16 -128 l-4 -127 464 2 464 3 3 63 3 62
-362 0 -362 0 -108 107 -109 107 0 98 c0 79 -3 98 -15 98 -18 0 -40 39 -28 50
14 13 47 17 64 7 14 -9 15 -27 12 -126z m301 123 c30 -30 13 -74 -29 -74 -42
0 -59 44 -29 74 8 9 22 16 29 16 7 0 21 -7 29 -16z m6570 -70 c39 -40 38 -94
-2 -136 -32 -35 -101 -39 -131 -9 -42 42 -33 132 16 160 34 20 89 13 117 -15z
m-6967 -81 c-3 -10 -5 -2 -5 17 0 19 2 27 5 18 2 -10 2 -26 0 -35z m-10 -80
c-3 -10 -5 -2 -5 17 0 19 2 27 5 18 2 -10 2 -26 0 -35z m919 21 c-3 -9 -6 -30
-6 -49 l0 -33 -60 2 -60 1 0 48 0 47 66 0 c56 0 65 -2 60 -16z m5603 -22 c7
-12 6 -26 -2 -43 -13 -24 -13 -24 -192 -27 -184 -3 -250 2 -240 19 4 5 79 9
173 9 l168 0 11 30 c9 24 17 30 42 30 19 0 34 -7 40 -18z m271 -58 c0 -12 -72
-104 -81 -104 -6 0 -8 -4 -4 -9 3 -5 1 -12 -4 -16 -21 -12 0 36 35 84 34 46
54 62 54 45z m-705 -411 c-4 -38 -13 -117 -21 -176 -9 -60 -13 -111 -10 -114
2 -3 91 -2 196 2 l191 8 13 31 c21 50 70 86 117 86 48 0 97 -20 123 -49 28
-31 34 -124 12 -166 -50 -93 -192 -96 -244 -6 l-16 28 -199 7 c-110 4 -201 5
-203 3 -2 -2 -18 -53 -35 -113 -16 -60 -51 -160 -76 -222 -25 -62 -43 -115
-41 -117 2 -2 167 -5 366 -6 276 -1 366 2 377 11 19 16 61 16 80 0 20 -16 19
-59 -2 -82 -23 -25 -58 -22 -81 7 l-20 25 -374 0 -374 0 -36 -77 c-256 -542
-751 -980 -1348 -1194 -212 -75 -528 -139 -689 -139 l-58 0 -7 -107 c-6 -99
-26 -216 -39 -229 -8 -8 -49 181 -56 260 l-6 71 -105 7 c-472 31 -985 241
-1360 556 -320 268 -591 659 -715 1028 -22 65 -44 122 -50 126 -5 5 -120 5
-255 2 l-245 -5 -44 -44 -44 -43 26 -33 c50 -67 40 -154 -22 -196 -65 -44
-161 -21 -196 46 -46 90 20 191 126 193 34 0 44 6 80 50 61 72 86 82 186 74
83 -6 83 -6 78 16 -2 13 -11 53 -19 89 -21 92 -43 240 -51 337 l-7 82 51 0
c57 0 54 6 66 -140 3 -41 13 -114 21 -161 8 -48 11 -95 7 -105 -4 -12 -3 -15
5 -10 7 4 12 1 12 -8 0 -8 3 -23 6 -33 5 -15 4 -15 -5 -3 -9 13 -11 13 -11 -2
0 -10 5 -18 10 -18 15 0 12 -30 -2 -31 -7 0 1 -5 17 -10 17 -5 73 -9 125 -8
72 1 96 -2 101 -12 3 -8 23 -66 44 -129 20 -63 69 -178 107 -255 354 -714
1021 -1196 1813 -1312 147 -21 457 -23 595 -4 133 19 387 83 522 132 478 174
890 496 1162 909 135 205 215 368 304 622 46 130 98 371 107 493 7 88 13 125
20 125 3 0 3 -30 0 -67z m1227 -10 c26 -24 28 -33 28 -98 0 -152 -53 -526 -82
-579 -21 -38 -21 6 1 116 27 135 51 324 51 401 0 55 -3 64 -32 94 l-32 33
-215 0 c-119 0 -247 3 -286 7 -130 12 -36 22 225 23 201 0 260 4 280 15 33 19
30 19 62 -12z m-7282 -239 c0 -2 -13 -4 -30 -4 -16 0 -30 4 -30 8 0 5 14 7 30
4 17 -2 30 -6 30 -8z m918 -51 c-10 -2 -26 -2 -35 0 -10 3 -2 5 17 5 19 0 27
-2 18 -5z m6216 -113 c-8 -52 -18 -97 -21 -100 -7 -6 7 192 14 203 3 5 9 5 14
0 4 -4 1 -51 -7 -103z m-124 98 c0 -2 -7 -41 -15 -87 -16 -91 -32 -126 -21
-47 3 27 6 68 6 92 0 32 4 44 15 44 8 0 15 -1 15 -2z m-605 -197 c0 -29 -29
-51 -46 -34 -7 7 -9 23 -5 38 9 35 51 32 51 -4z m-5939 -22 c18 -20 18 -21 -4
-59 -15 -27 -20 -48 -16 -68 4 -19 1 -32 -7 -37 -7 -5 -10 -4 -6 2 6 10 -10
63 -31 100 -13 24 -16 66 -5 76 13 14 50 6 69 -14z m654 -79 c8 -5 11 -10 5
-10 -5 0 -17 5 -25 10 -8 5 -10 10 -5 10 6 0 17 -5 25 -10z m70 -45 c0 -8 -2
-15 -4 -15 -2 0 -6 7 -10 15 -3 8 -1 15 4 15 6 0 10 -7 10 -15z m-42 -54 l20
-24 7 23 7 23 14 -24 c12 -22 13 -22 14 -4 1 15 4 13 12 -9 8 -23 8 -31 -1
-34 -8 -3 -6 -9 6 -18 11 -8 13 -13 6 -14 -7 0 -13 -4 -13 -10 0 -5 7 -7 15
-4 11 5 13 2 8 -12 -4 -11 -3 -15 4 -11 6 4 13 -3 17 -16 9 -33 5 -56 -4 -27
l-8 25 -1 -27 c-1 -21 -6 -27 -19 -25 -16 2 -70 47 -56 47 3 0 -2 7 -10 16 -9
8 -16 21 -16 27 0 7 4 6 10 -3 8 -12 10 -10 10 9 0 16 -4 22 -15 17 -8 -3 -15
-1 -15 4 0 6 8 10 18 11 13 0 12 3 -5 11 -13 6 -24 17 -24 25 -3 27 -4 31 -11
39 -5 4 -8 17 -7 28 0 21 0 21 9 1 5 -11 18 -31 28 -44z m2877 -51 c3 -5 1
-10 -4 -10 -6 0 -11 5 -11 10 0 6 2 10 4 10 3 0 8 -4 11 -10z m-2821 -160 c-7
-6 -24 22 -23 40 0 9 6 5 14 -10 7 -14 11 -27 9 -30z m70 -23 c-8 -26 15 -77
35 -78 10 0 7 -4 -9 -10 -31 -13 -49 8 -44 51 2 16 -1 32 -6 35 -6 3 -10 -3
-10 -14 0 -31 -17 -34 -28 -3 -10 30 0 47 34 54 23 5 35 -11 28 -35z m3985 1
c-23 -44 -113 -164 -177 -237 -73 -81 -220 -212 -327 -288 -341 -246 -841
-383 -1250 -343 -495 47 -944 271 -1259 627 -89 101 -163 199 -155 208 3 2 25
-21 49 -53 68 -86 195 -216 295 -300 266 -223 583 -369 930 -428 141 -24 444
-24 580 0 308 55 607 182 870 367 112 80 301 266 386 381 35 49 65 88 67 88 1
0 -3 -10 -9 -22z m-3955 -12 c-3 -8 -1 -17 5 -21 6 -3 11 -11 11 -17 0 -7 -5
-6 -15 2 -14 12 -18 63 -3 54 4 -3 5 -11 2 -18z m-444 -26 c0 -5 -2 -10 -4
-10 -3 0 -8 5 -11 10 -3 6 -1 10 4 10 6 0 11 -4 11 -10z m-38 -32 c-5 -36 -27
-63 -57 -71 -19 -4 -18 -5 2 -6 12 0 25 -5 28 -11 6 -9 -11 -11 -107 -14 -19
-1 -26 8 -39 49 l-16 50 91 16 c50 9 94 17 97 18 3 0 3 -13 1 -31z m4630 -13
c-5 -5 -21 -30 -37 -55 -110 -168 -311 -376 -485 -501 -131 -95 -266 -173
-281 -163 -7 4 -9 3 -6 -3 10 -15 -21 -25 -41 -13 -10 5 -12 10 -7 10 19 0
222 127 322 200 120 89 324 292 422 420 41 52 77 95 81 95 5 0 12 4 17 9 5 5
3 6 -4 2 -7 -4 -13 -3 -13 3 0 5 9 9 19 8 12 -1 17 -5 13 -12z m1188 -23 c0
-4 -17 -14 -37 -21 -124 -44 -139 -56 -219 -177 -42 -64 -78 -113 -81 -110 -7
7 84 167 121 212 30 37 103 79 163 93 51 12 53 12 53 3z m-5271 -25 c0 -8 -3
-7 -6 2 -4 11 -7 11 -14 0 -4 -7 -11 -10 -16 -6 -9 9 17 28 29 21 4 -3 8 -11
7 -17z m1638 -19 c-3 -8 -6 -5 -6 6 -1 11 2 17 5 13 3 -3 4 -12 1 -19z m-1677
-8 c7 10 10 11 10 2 0 -21 -30 -26 -48 -7 -16 16 -16 16 6 4 19 -12 24 -12 32
1z m95 -61 c9 -17 14 -33 12 -35 -3 -3 -59 -9 -126 -15 -67 -5 -132 -14 -145
-18 -12 -5 -38 -28 -56 -51 -32 -41 -33 -43 -15 -56 27 -20 59 -17 121 11 30
14 73 28 97 31 23 4 67 19 97 34 30 15 71 30 90 33 33 6 34 6 15 -9 -11 -8
-19 -19 -18 -23 2 -9 -144 -62 -289 -106 -49 -14 -88 -31 -88 -37 0 -21 -33
-48 -58 -48 -32 0 -62 27 -62 54 0 30 28 66 51 66 10 0 19 7 19 15 0 19 66
117 86 128 8 5 46 11 86 14 39 3 87 14 107 24 50 25 58 24 76 -12z m4503 -94
c31 -25 77 -55 103 -67 41 -17 46 -22 34 -34 -11 -12 -21 -10 -62 10 -26 14
-78 38 -115 55 -38 16 -68 33 -68 36 0 17 23 45 37 45 9 0 41 -20 71 -45z
m832 1 c0 -8 -4 -18 -10 -21 -5 -3 -10 3 -10 14 0 12 5 21 10 21 6 0 10 -6 10
-14z m-40 -10 c0 -8 -7 -16 -15 -20 -10 -4 -15 1 -15 14 0 11 7 20 15 20 8 0
15 -6 15 -14z m-5 -46 c3 -5 -1 -10 -10 -10 -9 0 -13 5 -10 10 3 6 8 10 10 10
2 0 7 -4 10 -10z m45 6 c0 -3 -4 -8 -10 -11 -5 -3 -10 -1 -10 4 0 6 5 11 10
11 6 0 10 -2 10 -4z m70 -26 c0 -5 -5 -10 -11 -10 -5 0 -7 5 -4 10 3 6 8 10
11 10 2 0 4 -4 4 -10z m-5252 -65 c94 -126 255 -297 401 -426 l73 -65 -24 -28
-24 -28 -67 56 c-37 32 -67 62 -67 67 0 6 -4 8 -9 5 -15 -9 -361 363 -361 388
0 7 -13 24 -36 49 -8 8 -3 16 20 28 17 9 35 16 40 15 6 0 30 -28 54 -61z
m5182 50 c0 -8 -4 -15 -10 -15 -5 0 -10 7 -10 15 0 8 5 15 10 15 6 0 10 -7 10
-15z m-40 -5 c0 -5 -7 -10 -15 -10 -8 0 -15 5 -15 10 0 6 7 10 15 10 8 0 15
-4 15 -10z m-40 -10 c0 -5 -2 -10 -4 -10 -3 0 -8 5 -11 10 -3 6 -1 10 4 10 6
0 11 -4 11 -10z m190 0 c0 -5 -2 -10 -4 -10 -3 0 -8 5 -11 10 -3 6 -1 10 4 10
6 0 11 -4 11 -10z m-6650 -35 c0 -5 -5 -3 -10 5 -5 8 -10 20 -10 25 0 6 5 3
10 -5 5 -8 10 -19 10 -25z m2073 -71 c189 -162 419 -304 627 -384 94 -37 96
-38 88 -45 -9 -10 -149 45 -283 111 -158 77 -309 174 -430 276 -119 100 -155
138 -131 138 10 0 68 -43 129 -96z m4463 69 c-10 -10 -19 5 -10 18 6 11 8 11
12 0 2 -7 1 -15 -2 -18z m38 -28 c-4 -8 -8 -15 -10 -15 -2 0 -4 7 -4 15 0 8 4
15 10 15 5 0 7 -7 4 -15z m-42 -17 c-7 -7 -12 -8 -12 -2 0 14 12 26 19 19 2
-3 -1 -11 -7 -17z m-298 -10 c-10 -33 -227 -328 -240 -328 -6 0 49 86 140 219
85 125 116 158 100 109z m231 2 c3 -5 -1 -10 -10 -10 -9 0 -13 5 -10 10 3 6 8
10 10 10 2 0 7 -4 10 -10z m-65 -29 c0 -21 -318 -441 -335 -441 -14 0 14 43
101 155 55 72 127 167 160 213 54 76 74 95 74 73z m72 -168 c-35 -68 -173
-254 -183 -247 -7 4 -3 14 9 28 28 31 147 205 167 246 10 19 20 30 22 23 2 -6
-5 -29 -15 -50z m-5094 10 c-10 -2 -28 -2 -40 0 -13 2 -5 4 17 4 22 1 32 -1
23 -4z m-186 -80 c25 -23 23 -68 -4 -87 -30 -21 -54 -20 -78 4 -22 22 -28 85
-7 93 26 11 71 6 89 -10z m4455 -45 c29 -29 43 -82 32 -122 -28 -103 -172
-124 -216 -30 l-18 37 -172 -6 c-95 -3 -181 -11 -193 -17 -42 -22 -52 -55 -57
-178 -3 -64 -7 -124 -10 -132 -4 -8 -5 -19 -4 -24 4 -15 -20 -64 -33 -69 -22
-9 -38 9 -34 38 3 27 14 38 51 49 15 5 17 20 17 121 l0 116 -30 6 c-40 7 -37
37 4 41 26 3 28 6 24 37 -3 23 1 36 10 40 7 3 108 5 223 5 l209 0 0 26 c0 16
13 39 35 61 33 33 39 35 86 31 36 -4 58 -12 76 -30z m966 -133 c-3 -9 -8 -14
-10 -11 -3 3 -2 9 2 15 9 16 15 13 8 -4z m-5171 -31 c37 -33 50 -79 37 -127
-16 -58 -50 -87 -100 -87 -77 0 -129 49 -129 122 0 40 32 95 63 108 33 14 105
5 129 -16z m4837 0 c-6 -7 -15 -11 -21 -8 -5 3 -4 12 3 20 6 7 15 11 21 8 5
-3 4 -12 -3 -20z m-4388 -11 c13 -16 12 -17 -3 -4 -17 13 -22 21 -14 21 2 0
10 -8 17 -17z m4157 -5 c-3 -7 -11 -13 -19 -13 -8 -1 -13 -7 -11 -14 1 -7 -2
-9 -8 -6 -8 5 -6 13 6 26 19 22 38 25 32 7z m199 -13 c0 -8 -4 -12 -9 -9 -5 3
-6 10 -3 15 9 13 12 11 12 -6z m-4309 -7 c15 -15 16 -28 2 -28 -5 0 -10 6 -10
14 0 8 -6 17 -12 19 -7 3 -8 6 -2 6 5 1 15 -4 22 -11z m37 -27 c3 -5 2 -12 -3
-15 -5 -3 -9 1 -9 9 0 17 3 19 12 6z m109 -80 c-2 -3 -10 1 -16 7 -7 7 -20 12
-31 12 -10 0 -15 5 -12 10 5 9 -6 14 -26 12 -3 -1 -6 5 -6 13 0 8 17 2 48 -19
26 -17 45 -33 43 -35z m4439 34 c-3 -9 -8 -14 -10 -11 -3 3 -2 9 2 15 9 16 15
13 8 -4z m-5827 -130 c53 -71 140 -181 193 -243 131 -156 135 -161 129 -168
-12 -11 -37 11 -130 116 -165 185 -258 303 -253 321 3 9 -1 22 -10 29 -8 7
-15 18 -15 25 0 7 -7 18 -15 25 -16 14 -21 34 -6 28 5 -1 53 -61 107 -133z
m5233 89 c-12 -13 -25 -22 -27 -19 -3 3 -12 -1 -21 -7 -9 -7 -1 4 18 25 19 20
38 34 43 31 5 -4 -1 -17 -13 -30z m-4259 -4 c8 -14 8 -26 0 -41 -9 -17 -17
-19 -43 -13 -41 8 -41 8 -26 36 22 42 52 50 69 18z m4851 -3 c-10 -9 -11 -8
-5 6 3 10 9 15 12 12 3 -3 0 -11 -7 -18z m-4371 -23 c0 -2 -9 0 -20 6 -11 6
-20 13 -20 16 0 2 9 0 20 -6 11 -6 20 -13 20 -16z m4232 -6 c-8 -8 -9 -4 -5
13 4 13 8 18 11 10 2 -7 -1 -18 -6 -23z m-2032 0 c5 -13 47 -117 93 -233 77
-190 87 -210 112 -217 38 -10 75 -47 75 -75 0 -32 -26 -80 -49 -93 -84 -44
-169 58 -111 133 25 31 23 41 -33 182 -62 157 -117 325 -106 325 5 0 14 -10
19 -22z m2071 -15 c-12 -20 -14 -14 -5 12 4 9 9 14 11 11 3 -2 0 -13 -6 -23z
m69 17 c0 -5 -5 -10 -11 -10 -5 0 -7 5 -4 10 3 6 8 10 11 10 2 0 4 -4 4 -10z
m-33 -32 c-3 -8 -6 -5 -6 6 -1 11 2 17 5 13 3 -3 4 -12 1 -19z m-4347 8 c0 -2
-7 -7 -16 -10 -8 -3 -12 -2 -9 4 6 10 25 14 25 6z m115 -14 c-3 -3 -11 0 -18
7 -9 10 -8 11 6 5 10 -3 15 -9 12 -12z m2519 -33 c10 -17 14 -29 8 -26 -5 4
-20 24 -32 44 -12 20 -16 32 -8 26 7 -6 22 -26 32 -44z m1110 30 c-3 -5 -10
-7 -15 -3 -5 3 -7 10 -3 15 3 5 10 7 15 3 5 -3 7 -10 3 -15z m546 8 c0 -7 -9
-18 -21 -25 -21 -13 -21 -13 -3 12 22 29 24 31 24 13z m-5819 -104 c41 -53
140 -165 221 -247 80 -83 145 -152 144 -154 -10 -9 -321 308 -383 390 -40 53
-73 100 -73 103 0 19 26 -7 91 -92z m5840 74 c-10 -9 -11 -8 -5 6 3 10 9 15
12 12 3 -3 0 -11 -7 -18z m61 1 c-7 -7 -12 -8 -12 -2 0 14 12 26 19 19 2 -3
-1 -11 -7 -17z m-669 0 c-4 -7 -8 -16 -8 -20 0 -5 -3 -7 -6 -5 -10 3 -49 -35
-44 -43 2 -4 -4 -15 -15 -25 -11 -10 -20 -16 -20 -13 0 2 -49 -44 -110 -104
-60 -59 -115 -108 -123 -108 -21 0 -37 22 -37 52 0 31 31 45 74 34 20 -5 40 8
118 78 51 46 111 102 133 125 40 42 53 51 38 29z m510 -3 c-3 -9 -8 -14 -10
-11 -3 3 -2 9 2 15 9 16 15 13 8 -4z m-5812 -62 c71 -107 91 -143 81 -143 -5
0 -27 26 -48 58 -21 31 -56 74 -79 96 -37 36 -39 39 -20 47 11 4 21 8 21 8 1
1 21 -29 45 -66z m1041 40 c22 -20 23 -41 1 -65 -20 -22 -56 -23 -77 -2 -48
48 25 113 76 67z m4742 -8 c-4 -8 -8 -15 -10 -15 -2 0 -4 7 -4 15 0 8 4 15 10
15 5 0 7 -7 4 -15z m106 5 c0 -5 -5 -10 -11 -10 -5 0 -7 5 -4 10 3 6 8 10 11
10 2 0 4 -4 4 -10z m-2460 -119 c0 -90 -3 -111 -17 -122 -15 -12 -16 -12 -10
4 4 10 7 66 7 123 0 63 4 104 10 104 6 0 10 -43 10 -109z m2080 106 c0 -1 -42
-43 -92 -92 l-93 -90 90 93 c83 85 95 97 95 89z m303 -12 c-3 -9 -8 -14 -10
-11 -3 3 -2 9 2 15 9 16 15 13 8 -4z m24 -37 c-3 -8 -6 -5 -6 6 -1 11 2 17 5
13 3 -3 4 -12 1 -19z m-47 8 c0 -3 -4 -8 -10 -11 -5 -3 -10 -1 -10 4 0 6 5 11
10 11 6 0 10 -2 10 -4z m-40 -31 c0 -8 -4 -15 -10 -15 -5 0 -7 7 -4 15 4 8 8
15 10 15 2 0 4 -7 4 -15z m70 11 c0 -3 -4 -8 -10 -11 -5 -3 -10 -1 -10 4 0 6
5 11 10 11 6 0 10 -2 10 -4z m-36 -41 c-4 -8 -8 -15 -10 -15 -2 0 -4 7 -4 15
0 8 4 15 10 15 5 0 7 -7 4 -15z m53 -7 c-3 -8 -6 -5 -6 6 -1 11 2 17 5 13 3
-3 4 -12 1 -19z m-117 8 c0 -3 -4 -8 -10 -11 -5 -3 -10 -1 -10 4 0 6 5 11 10
11 6 0 10 -2 10 -4z m21 -39 c-10 -9 -11 -8 -5 6 3 10 9 15 12 12 3 -3 0 -11
-7 -18z m79 19 c0 -3 -4 -8 -10 -11 -5 -3 -10 -1 -10 4 0 6 5 11 10 11 6 0 10
-2 10 -4z m-40 -31 c0 -8 -4 -15 -10 -15 -5 0 -7 7 -4 15 4 8 8 15 10 15 2 0
4 -7 4 -15z m-60 -4 c0 -6 -4 -13 -10 -16 -5 -3 -10 1 -10 9 0 9 5 16 10 16 6
0 10 -4 10 -9z m92 -23 c-7 -7 -12 -8 -12 -2 0 14 12 26 19 19 2 -3 -1 -11 -7
-17z m-135 -10 c-3 -8 -6 -5 -6 6 -1 11 2 17 5 13 3 -3 4 -12 1 -19z m64 -1
c-10 -9 -11 -8 -5 6 3 10 9 15 12 12 3 -3 0 -11 -7 -18z m-3113 -46 c2 -18 -2
-39 -9 -47 -14 -17 -51 -18 -67 -2 -13 13 -16 67 -4 84 24 36 75 13 80 -35z
m2614 -21 c-34 -33 -65 -60 -69 -60 -8 0 119 119 127 119 3 0 -23 -26 -58 -59z
m472 45 c-4 -8 -8 -15 -10 -15 -2 0 -4 7 -4 15 0 8 4 15 10 15 5 0 7 -7 4 -15z
m53 -17 c-3 -8 -6 -5 -6 6 -1 11 2 17 5 13 3 -3 4 -12 1 -19z m-147 2 c0 -5
-5 -10 -11 -10 -5 0 -7 5 -4 10 3 6 8 10 11 10 2 0 4 -4 4 -10z m57 -12 c-3
-8 -6 -5 -6 6 -1 11 2 17 5 13 3 -3 4 -12 1 -19z m60 -15 c-3 -10 -5 -4 -5 12
0 17 2 24 5 18 2 -7 2 -21 0 -30z m-3883 5 c9 -12 16 -32 16 -44 0 -46 -73
-75 -107 -42 -18 19 -20 72 -3 93 19 23 76 19 94 -7z m2606 2 c0 -11 4 -20 8
-20 19 0 52 -43 52 -67 0 -14 -20 -63 -45 -109 -49 -89 -77 -114 -184 -169
-81 -40 -258 -107 -410 -154 -182 -56 -190 -51 -11 8 239 79 455 173 519 227
30 25 81 110 81 134 0 5 -6 10 -13 10 -21 0 -50 37 -49 62 0 30 30 98 42 98 6
0 10 -9 10 -20z m1260 -34 c0 -3 -4 -8 -10 -11 -5 -3 -10 -1 -10 4 0 6 5 11
10 11 6 0 10 -2 10 -4z m-30 -30 c0 -3 -4 -8 -10 -11 -5 -3 -10 -1 -10 4 0 6
5 11 10 11 6 0 10 -2 10 -4z m-5010 -31 c0 -9 -6 -31 -14 -49 -14 -34 -14 -34
25 -66 22 -17 36 -36 33 -42 -4 -7 -2 -8 4 -4 6 3 56 -31 110 -76 86 -72 122
-94 268 -162 168 -78 204 -99 191 -112 -3 -4 -41 12 -84 34 -43 22 -125 61
-183 87 -105 48 -161 88 -310 220 -41 37 -92 78 -112 91 -39 25 -45 42 -29 73
13 24 101 29 101 6z m4475 -4 c-3 -6 -10 -9 -14 -7 -4 3 -18 -8 -30 -25 -13
-17 -25 -28 -28 -25 -4 3 -13 -3 -20 -14 -8 -11 -19 -18 -24 -15 -5 4 -9 2 -9
-4 0 -5 -13 -19 -29 -31 -21 -14 -32 -17 -37 -9 -4 8 -3 9 4 5 6 -3 16 3 22
14 6 11 15 18 21 15 5 -4 9 -2 9 3 0 13 116 102 124 95 3 -3 6 0 6 7 0 7 3 11
6 7 3 -3 3 -11 -1 -16z m505 5 c0 -3 -4 -8 -10 -11 -5 -3 -10 -1 -10 4 0 6 5
11 10 11 6 0 10 -2 10 -4z m-60 -10 c0 -3 -4 -8 -10 -11 -5 -3 -10 -1 -10 4 0
6 5 11 10 11 6 0 10 -2 10 -4z m-2102 -32 c48 -20 89 -59 102 -99 12 -37 10
-105 -3 -105 -4 0 -6 -4 -3 -9 3 -5 -4 -24 -17 -42 -64 -97 -219 -90 -276 12
l-22 39 -225 0 c-236 0 -424 13 -534 36 -46 9 -52 12 -20 8 179 -18 283 -24
514 -30 l263 -7 5 56 c10 119 111 185 216 141z m2072 6 c0 -5 -5 -10 -11 -10
-5 0 -7 5 -4 10 3 6 8 10 11 10 2 0 4 -4 4 -10z m60 6 c0 -3 -4 -8 -10 -11 -5
-3 -10 -1 -10 4 0 6 5 11 10 11 6 0 10 -2 10 -4z m-35 -25 c3 -5 1 -12 -5 -16
-5 -3 -10 1 -10 9 0 18 6 21 15 7z m-25 -31 c0 -5 -4 -10 -10 -10 -5 0 -10 5
-10 10 0 6 5 10 10 10 6 0 10 -4 10 -10z m-5100 -25 c11 -13 10 -14 -4 -9 -9
3 -16 10 -16 15 0 13 6 11 20 -6z m5066 0 c-1 -8 -5 -17 -8 -21 -5 -4 -4 16 1
34 3 9 9 -1 7 -13z m-56 1 c0 -2 -8 -10 -17 -17 -16 -13 -17 -12 -4 4 13 16
21 21 21 13z m-3557 -65 c172 -59 394 -115 522 -132 50 -6 101 -15 115 -19
l25 -8 -28 -1 c-52 -2 -226 29 -359 63 -143 37 -385 117 -427 142 -32 19 -29
18 152 -45z m3012 3 c-27 -22 -52 -24 -39 -3 3 5 9 7 14 4 4 -3 10 1 13 8 3 8
13 14 23 14 13 0 11 -6 -11 -23z m575 22 c0 -2 -8 -10 -17 -17 -16 -13 -17
-12 -4 4 13 16 21 21 21 13z m-626 -57 c-3 -5 -10 -7 -15 -3 -5 3 -7 10 -3 15
3 5 10 7 15 3 5 -3 7 -10 3 -15z m-30 -7 c3 -5 -1 -9 -9 -9 -8 0 -12 4 -9 9 3
4 7 8 9 8 2 0 6 -4 9 -8z m-33 -26 c-1 -3 -3 -6 -6 -6 -3 0 -14 -9 -25 -20
-12 -12 -25 -18 -30 -15 -6 4 -10 2 -10 -3 0 -12 -166 -110 -286 -170 -359
-180 -828 -317 -1158 -339 l-93 -6 -39 36 c-21 19 -36 39 -31 43 4 4 23 -7 42
-26 l34 -33 85 7 c410 31 984 228 1416 486 90 54 103 60 101 46z m599 10 c0
-3 -4 -8 -10 -11 -5 -3 -10 -1 -10 4 0 6 5 11 10 11 6 0 10 -2 10 -4z m-4243
-94 c167 -76 238 -122 213 -137 -8 -5 -11 -4 -7 2 10 15 -18 31 -204 118 -90
42 -168 82 -174 87 -14 15 -10 13 172 -70z m4157 19 c-2 -3 -12 3 -22 13 -16
17 -16 18 5 5 12 -7 20 -15 17 -18z m-54 -41 c0 -5 -5 -10 -11 -10 -5 0 -7 5
-4 10 3 6 8 10 11 10 2 0 4 -4 4 -10z m-96 -56 c3 -8 2 -12 -4 -9 -6 3 -10 10
-10 16 0 14 7 11 14 -7z m-954 -8 c0 -15 -332 -140 -353 -133 -5 1 35 18 89
36 55 19 135 49 179 67 92 38 85 35 85 30z m935 -25 c-6 -5 -25 10 -25 20 0 5
6 4 14 -3 8 -7 12 -15 11 -17z m-1448 -37 c-3 -3 -12 -4 -19 -1 -8 3 -5 6 6 6
11 1 17 -2 13 -5z m-709 -64 c45 -28 72 -76 72 -130 0 -54 -27 -102 -72 -131
-26 -16 -45 -19 -91 -16 -67 4 -82 16 -92 75 l-7 43 26 -25 c14 -15 36 -26 50
-26 36 0 86 46 86 79 0 67 -86 96 -137 45 l-26 -26 6 38 c4 22 7 46 7 55 0 40
122 53 178 19z m-1898 -80 c-20 -13 -33 -13 -25 0 3 6 14 10 23 10 15 0 15 -2
2 -10z m109 -99 c19 -25 27 -40 17 -32 -12 10 -20 11 -24 4 -4 -6 -21 4 -42
25 -19 20 -26 28 -14 19 42 -34 46 -11 9 48 -28 44 -13 26 54 -64z m-152 83
c-3 -3 -12 -4 -19 -1 -8 3 -5 6 6 6 11 1 17 -2 13 -5z m76 -25 c3 -13 1 -19
-6 -16 -15 5 -22 37 -9 37 5 0 12 -9 15 -21z m563 -123 c60 -23 140 -53 177
-65 38 -13 66 -25 64 -27 -6 -6 -194 60 -294 103 -54 23 -88 44 -99 61 l-17
27 30 -28 c17 -15 79 -47 139 -71z m-252 12 c40 -51 79 -69 349 -163 59 -21
107 -42 107 -47 0 -6 -8 -7 -17 -3 -10 4 -85 31 -167 61 -234 85 -261 99 -296
154 -16 26 -30 51 -30 55 0 10 3 7 54 -57z m-203 -6 c-7 -2 -18 1 -23 6 -8 8
-4 9 13 5 13 -4 18 -8 10 -11z m769 -117 c19 -7 28 -13 20 -13 -8 0 -31 6 -50
13 -19 7 -28 13 -20 13 8 0 31 -6 50 -13z m127 -41 c-3 -3 -12 -4 -19 -1 -8 3
-5 6 6 6 11 1 17 -2 13 -5z m40 -10 c-3 -3 -12 -4 -19 -1 -8 3 -5 6 6 6 11 1
17 -2 13 -5z m-197 -73 c-6 -23 -15 -39 -20 -36 -5 3 -7 11 -5 18 19 54 26 69
31 64 3 -3 0 -24 -6 -46z m327 43 c-3 -3 -12 -4 -19 -1 -8 3 -5 6 6 6 11 1 17
-2 13 -5z m-487 -13 c0 -5 -9 -7 -20 -4 -11 3 -20 7 -20 9 0 2 9 4 20 4 11 0
20 -4 20 -9z m213 -38 c-6 -42 -10 -49 -19 -40 -9 9 5 77 16 77 5 0 6 -17 3
-37z m374 31 c-3 -3 -12 -4 -19 -1 -8 3 -5 6 6 6 11 1 17 -2 13 -5z m-494 -24
c-3 -12 -8 -19 -11 -16 -5 6 5 36 12 36 2 0 2 -9 -1 -20z m183 -2 c-3 -13 -6
-31 -6 -40 0 -10 -7 -18 -16 -18 -12 0 -14 7 -9 33 9 39 13 47 27 47 6 0 8
-10 4 -22z m377 15 c-7 -2 -19 -2 -25 0 -7 3 -2 5 12 5 14 0 19 -2 13 -5z
m-328 -52 c-4 -23 -10 -39 -15 -36 -7 4 -4 42 6 74 9 29 16 1 9 -38z m398 42
c-7 -2 -19 -2 -25 0 -7 3 -2 5 12 5 14 0 19 -2 13 -5z m854 1 c-3 -3 -12 -4
-19 -1 -8 3 -5 6 6 6 11 1 17 -2 13 -5z m-1197 -49 c0 -25 -4 -45 -10 -45 -11
0 -14 49 -4 74 10 26 14 18 14 -29z m443 38 c-13 -2 -33 -2 -45 0 -13 2 -3 4
22 4 25 0 35 -2 23 -4z m685 0 c-10 -2 -26 -2 -35 0 -10 3 -2 5 17 5 19 0 27
-2 18 -5z m-1068 -38 c0 -19 -4 -35 -10 -35 -11 0 -14 53 -3 63 11 12 13 8 13
-28z m858 23 c-76 -4 -206 -4 -290 0 -144 8 -135 9 137 9 260 0 276 -1 153 -9z
m-768 -53 c0 -24 -5 -35 -15 -35 -15 0 -22 50 -8 63 15 15 23 5 23 -28z m48
-5 c-1 -16 -7 -30 -13 -30 -7 0 -10 12 -7 30 2 17 8 30 13 30 5 0 8 -13 7 -30z
m28 -38 c-12 -12 -18 8 -10 35 l8 28 4 -28 c2 -16 1 -31 -2 -35z m30 0 c-12
-11 -17 7 -9 34 l8 29 3 -28 c2 -16 1 -31 -2 -35z m21 1 c-3 -10 -5 -2 -5 17
0 19 2 27 5 18 2 -10 2 -26 0 -35z m29 -11 c-11 -10 -14 3 -8 33 l7 30 3 -28
c2 -16 1 -31 -2 -35z m21 11 c-3 -10 -5 -4 -5 12 0 17 2 24 5 18 2 -7 2 -21 0
-30z m29 -10 c-10 -26 -18 -8 -9 23 5 21 8 24 11 11 2 -10 1 -25 -2 -34z m26
12 c-2 -14 -6 -25 -8 -25 -2 0 -4 11 -4 25 0 14 4 25 9 25 4 0 6 -11 3 -25z
m36 0 c1 -14 -3 -25 -8 -25 -6 0 -10 11 -10 25 0 14 4 25 8 25 4 0 9 -11 10
-25z m19 -22 c-3 -10 -5 -2 -5 17 0 19 2 27 5 18 2 -10 2 -26 0 -35z m30 5
c-3 -7 -5 -2 -5 12 0 14 2 19 5 13 2 -7 2 -19 0 -25z m20 -5 c-3 -10 -5 -4 -5
12 0 17 2 24 5 18 2 -7 2 -21 0 -30z m30 0 c-3 -10 -5 -4 -5 12 0 17 2 24 5
18 2 -7 2 -21 0 -30z m30 0 c-3 -10 -5 -4 -5 12 0 17 2 24 5 18 2 -7 2 -21 0
-30z m30 0 c-3 -10 -5 -4 -5 12 0 17 2 24 5 18 2 -7 2 -21 0 -30z m50 0 c-3
-10 -5 -4 -5 12 0 17 2 24 5 18 2 -7 2 -21 0 -30z m20 -5 c-3 -7 -5 -2 -5 12
0 14 2 19 5 13 2 -7 2 -19 0 -25z m60 -5 c-3 -10 -5 -4 -5 12 0 17 2 24 5 18
2 -7 2 -21 0 -30z m50 5 c-3 -7 -5 -2 -5 12 0 14 2 19 5 13 2 -7 2 -19 0 -25z
m20 0 c-3 -7 -5 -2 -5 12 0 14 2 19 5 13 2 -7 2 -19 0 -25z m20 0 c-3 -8 -6
-5 -6 6 -1 11 2 17 5 13 3 -3 4 -12 1 -19z m-107 3 c0 -6 -4 -13 -10 -16 -5
-3 -10 1 -10 9 0 9 5 16 10 16 6 0 10 -4 10 -9z m50 -7 c0 -8 -4 -12 -10 -9
-5 3 -10 10 -10 16 0 5 5 9 10 9 6 0 10 -7 10 -16z"/>
<path d="M4656 8873 c-9 -23 -7 -28 6 -15 7 7 17 8 30 1 13 -7 18 -6 18 4 0
20 -47 28 -54 10z"/>
<path d="M4730 8878 c0 -20 8 -22 29 -9 9 6 10 11 2 15 -6 4 -11 1 -11 -6 0
-9 -3 -9 -10 2 -8 13 -10 12 -10 -2z"/>
<path d="M4826 8875 c4 -8 10 -15 15 -15 4 0 6 7 3 15 -4 8 -10 15 -15 15 -4
0 -6 -7 -3 -15z"/>
<path d="M4618 8873 c-19 -5 -54 -53 -38 -53 5 0 10 6 11 13 0 6 5 3 10 -8 9
-19 9 -18 5 3 -3 13 1 22 9 22 7 0 15 7 19 15 3 8 4 14 3 14 -1 -1 -10 -3 -19
-6z"/>
<path d="M4780 8870 c0 -5 5 -10 11 -10 5 0 7 5 4 10 -3 6 -8 10 -11 10 -2 0
-4 -4 -4 -10z"/>
<path d="M4517 8856 c-21 -7 -34 -16 -30 -20 4 -5 0 -6 -11 -2 -25 9 -56 -2
-56 -19 0 -11 6 -12 23 -6 54 20 77 22 77 6 0 -8 9 -15 20 -15 13 0 18 5 14
15 -4 8 -1 22 5 29 17 20 2 24 -42 12z"/>
<path d="M5608 8863 c7 -3 16 -2 19 1 4 3 -2 6 -13 5 -11 0 -14 -3 -6 -6z"/>
<path d="M5695 8849 c3 -9 7 -29 8 -45 2 -18 9 -30 20 -32 9 -2 17 1 17 7 0 6
-6 11 -13 11 -7 0 -14 12 -15 27 -1 15 -7 32 -13 38 -7 7 -8 5 -4 -6z"/>
<path d="M5620 8828 c0 -12 3 -17 8 -12 4 5 11 12 15 15 5 3 2 9 -7 12 -12 5
-16 0 -16 -15z"/>
<path d="M5664 8809 c1 -18 7 -34 15 -37 11 -4 12 2 7 24 -11 43 -23 50 -22
13z"/>
<path d="M5750 8824 c0 -8 5 -12 10 -9 6 4 8 11 5 16 -9 14 -15 11 -15 -7z"/>
<path d="M4676 8822 c-3 -5 1 -9 9 -9 8 0 15 4 15 9 0 4 -4 8 -9 8 -6 0 -12
-4 -15 -8z"/>
<path d="M5725 8820 c3 -5 8 -10 11 -10 2 0 4 5 4 10 0 6 -5 10 -11 10 -5 0
-7 -4 -4 -10z"/>
<path d="M5785 8820 c-6 -10 1 -14 18 -11 5 1 21 -8 37 -19 15 -11 37 -20 48
-20 11 0 22 -6 25 -12 2 -7 8 -10 12 -6 4 4 -3 16 -16 27 -14 11 -28 16 -33
11 -5 -5 -20 -2 -35 9 -43 29 -49 32 -56 21z"/>
<path d="M4763 8805 c0 -9 4 -14 9 -13 5 2 10 8 10 13 0 5 -5 11 -10 13 -5 1
-9 -4 -9 -13z"/>
<path d="M4685 8780 c-3 -5 -1 -10 4 -10 6 0 11 5 11 10 0 6 -2 10 -4 10 -3 0
-8 -4 -11 -10z"/>
<path d="M5800 8786 c0 -2 7 -7 16 -10 8 -3 12 -2 9 4 -6 10 -25 14 -25 6z"/>
<path d="M4540 8759 c-13 -9 -13 -10 2 -6 9 3 19 1 22 -6 2 -7 5 -4 5 6 1 20
-7 21 -29 6z"/>
<path d="M5943 8750 c-1 -11 3 -20 8 -20 6 0 7 5 3 12 -5 8 -2 9 9 5 10 -3 17
-2 17 2 0 7 -23 21 -34 21 -1 0 -2 -9 -3 -20z"/>
<path d="M6000 8738 c0 -9 7 -19 16 -22 15 -6 15 -4 3 11 -7 10 -15 20 -16 22
-2 2 -3 -3 -3 -11z"/>
<path d="M4461 8688 c-1 -20 14 -24 25 -6 4 6 3 8 -4 4 -5 -3 -13 0 -15 6 -3
8 -6 6 -6 -4z"/>
<path d="M6115 8690 c-3 -5 3 -10 15 -10 12 0 18 5 15 10 -3 6 -10 10 -15 10
-5 0 -12 -4 -15 -10z"/>
<path d="M6085 8680 c3 -5 8 -10 11 -10 2 0 4 5 4 10 0 6 -5 10 -11 10 -5 0
-7 -4 -4 -10z"/>
<path d="M4506 8661 c5 -5 20 -11 34 -15 14 -3 19 -3 12 0 -6 3 -10 10 -6 15
3 5 -7 9 -22 9 -17 0 -24 -4 -18 -9z"/>
<path d="M4472 8644 c-17 -18 -16 -19 23 -20 19 0 35 0 35 2 0 1 -10 8 -23 17
-18 12 -24 12 -35 1z"/>
<path d="M6080 8650 c0 -5 7 -10 15 -10 8 0 15 5 15 10 0 6 -7 10 -15 10 -8 0
-15 -4 -15 -10z"/>
<path d="M4548 8620 c-22 -18 -22 -20 -6 -36 19 -20 37 -12 20 8 -7 9 -6 17 4
26 12 11 14 7 15 -25 1 -21 1 -43 0 -50 -2 -18 19 -27 32 -13 9 10 8 12 -5 7
-16 -6 -17 0 -13 42 6 57 -10 71 -47 41z"/>
<path d="M4463 8586 c-5 -8 -19 -19 -33 -25 -14 -5 -19 -10 -12 -10 7 -1 10
-5 7 -11 -15 -24 13 -7 33 20 22 29 39 31 69 8 13 -10 7 -38 -9 -38 -5 0 -6 4
-3 10 3 6 -1 7 -9 4 -9 -3 -16 -1 -16 5 0 6 5 11 12 11 6 0 8 3 5 6 -10 10
-59 -25 -51 -37 4 -7 10 -6 19 1 14 11 34 -3 55 -38 8 -15 11 -15 19 -2 5 8 8
17 5 21 -2 4 2 9 8 12 7 2 9 8 5 13 -5 5 -13 1 -18 -9 -6 -9 -14 -17 -20 -17
-5 0 -4 9 3 20 7 11 20 20 28 20 8 0 -2 11 -22 25 -42 28 -63 31 -75 11z"/>
<path d="M4065 8560 c-3 -5 -1 -10 4 -10 6 0 11 5 11 10 0 6 -2 10 -4 10 -3 0
-8 -4 -11 -10z"/>
<path d="M6490 8494 c0 -8 5 -12 10 -9 6 3 10 10 10 16 0 5 -4 9 -10 9 -5 0
-10 -7 -10 -16z"/>
<path d="M3959 7963 c-13 -15 -12 -15 9 -4 23 12 28 21 13 21 -5 0 -15 -7 -22
-17z"/>
<path d="M3900 7935 c-14 -8 -20 -14 -15 -14 6 0 21 6 35 14 14 8 21 14 15 14
-5 0 -21 -6 -35 -14z"/>
<path d="M3126 7916 c3 -9 11 -16 16 -16 13 0 5 23 -10 28 -7 2 -10 -2 -6 -12z"/>
<path d="M3190 7918 c0 -19 26 -42 34 -30 3 5 -3 17 -14 27 -17 15 -20 16 -20
3z"/>
<path d="M7660 7895 c0 -8 8 -23 18 -33 9 -10 36 -39 60 -65 24 -26 42 -40 42
-31 0 12 4 13 21 4 19 -11 20 -10 9 10 -9 17 -14 19 -26 9 -21 -17 -42 4 -26
24 13 15 6 27 -16 27 -12 0 -12 -2 -1 -17 12 -14 12 -16 -1 -11 -8 3 -15 14
-14 26 0 12 -4 19 -8 16 -14 -9 -47 26 -41 42 3 8 0 14 -6 14 -6 0 -11 -7 -11
-15z"/>
<path d="M3737 7851 c-40 -26 -47 -36 -12 -18 42 23 62 37 50 36 -5 0 -22 -8
-38 -18z"/>
<path d="M3015 7850 c3 -5 8 -10 11 -10 2 0 4 5 4 10 0 6 -5 10 -11 10 -5 0
-7 -4 -4 -10z"/>
<path d="M2980 7830 c0 -5 5 -10 11 -10 5 0 7 5 4 10 -3 6 -8 10 -11 10 -2 0
-4 -4 -4 -10z"/>
<path d="M2876 7801 c-3 -5 1 -11 9 -15 8 -3 15 -1 15 4 0 13 -18 22 -24 11z"/>
<path d="M2946 7801 c-4 -5 -2 -12 3 -15 5 -4 12 -2 15 3 4 5 2 12 -3 15 -5 4
-12 2 -15 -3z"/>
<path d="M3629 7779 l-24 -20 28 17 c15 9 27 18 27 20 0 8 -8 4 -31 -17z"/>
<path d="M5545 7780 c-3 -5 -1 -10 4 -10 6 0 11 5 11 10 0 6 -2 10 -4 10 -3 0
-8 -4 -11 -10z"/>
<path d="M2910 7766 c0 -9 5 -16 10 -16 6 0 10 4 10 9 0 6 -4 13 -10 16 -5 3
-10 -1 -10 -9z"/>
<path d="M2970 7772 c0 -14 39 -46 47 -39 3 4 -2 16 -12 27 -19 21 -35 26 -35
12z"/>
<path d="M2720 7760 c0 -5 5 -10 10 -10 6 0 10 5 10 10 0 6 -4 10 -10 10 -5 0
-10 -4 -10 -10z"/>
<path d="M2845 7760 c-3 -5 -2 -10 4 -10 5 0 13 5 16 10 3 6 2 10 -4 10 -5 0
-13 -4 -16 -10z"/>
<path d="M2937 7744 c-7 -7 30 -44 45 -44 17 0 7 22 -12 27 -11 3 -17 9 -14
14 6 10 -9 12 -19 3z"/>
<path d="M7790 7741 c0 -5 5 -13 10 -16 6 -3 10 -2 10 4 0 5 -4 13 -10 16 -5
3 -10 2 -10 -4z"/>
<path d="M2815 7730 c-3 -5 -1 -10 4 -10 6 0 11 5 11 10 0 6 -2 10 -4 10 -3 0
-8 -4 -11 -10z"/>
<path d="M2875 7730 c4 -6 11 -8 16 -5 14 9 11 15 -7 15 -8 0 -12 -5 -9 -10z"/>
<path d="M2840 7705 c0 -9 5 -15 11 -13 6 2 11 8 11 13 0 5 -5 11 -11 13 -6 2
-11 -4 -11 -13z"/>
<path d="M2900 7712 c0 -5 9 -17 20 -27 16 -14 23 -16 32 -7 11 11 1 17 -24
13 -5 0 -8 6 -8 14 0 8 -4 15 -10 15 -5 0 -10 -4 -10 -8z"/>
<path d="M7820 7712 c0 -5 9 -17 20 -27 11 -10 20 -13 20 -7 0 7 -4 12 -10 12
-5 0 -10 7 -10 15 0 8 -4 15 -10 15 -5 0 -10 -4 -10 -8z"/>
<path d="M7865 7710 c-3 -5 -1 -10 4 -10 6 0 11 5 11 10 0 6 -2 10 -4 10 -3 0
-8 -4 -11 -10z"/>
<path d="M2660 7700 c0 -5 5 -10 11 -10 5 0 7 5 4 10 -3 6 -8 10 -11 10 -2 0
-4 -4 -4 -10z"/>
<path d="M2720 7700 c0 -5 5 -10 11 -10 5 0 7 5 4 10 -3 6 -8 10 -11 10 -2 0
-4 -4 -4 -10z"/>
<path d="M2785 7700 c-3 -5 -1 -10 4 -10 6 0 11 5 11 10 0 6 -2 10 -4 10 -3 0
-8 -4 -11 -10z"/>
<path d="M2806 7683 c-11 -11 -7 -23 8 -23 8 0 16 -5 18 -11 2 -7 9 -10 16 -8
7 2 2 13 -12 26 -13 12 -26 20 -30 16z"/>
<path d="M2860 7680 c0 -5 3 -10 8 -10 8 0 108 -94 132 -125 14 -17 14 -18 -9
-6 -13 7 -37 27 -53 43 -20 21 -33 27 -40 20 -13 -13 -2 -32 18 -32 8 0 14 -7
14 -15 0 -8 4 -15 10 -15 5 0 15 -10 21 -22 11 -20 10 -21 -3 -10 -12 10 -18
10 -27 -2 -12 -15 1 -32 17 -22 4 2 9 -4 9 -15 2 -28 -8 -23 -46 21 -33 39
-51 44 -51 14 0 -8 7 -14 15 -14 8 0 15 -9 15 -20 0 -11 7 -20 15 -20 8 0 15
-4 15 -10 0 -5 -6 -10 -14 -10 -8 0 -23 -15 -35 -32 l-20 -33 42 -43 c23 -24
89 -88 147 -142 l105 -97 106 101 c59 55 110 111 113 123 6 19 -10 39 -100
127 -91 89 -113 105 -143 108 -24 2 -39 10 -46 23 -16 32 -102 107 -110 96 -3
-6 -15 -16 -27 -22 -11 -6 -18 -7 -15 -2 4 6 -5 20 -18 31 -27 24 -45 28 -45
12z m151 -80 c23 -22 39 -40 35 -40 -13 0 -85 54 -90 68 -10 23 13 12 55 -28z"/>
<path d="M2625 7670 c-3 -5 1 -10 10 -10 9 0 13 5 10 10 -3 6 -8 10 -10 10 -2
0 -7 -4 -10 -10z"/>
<path d="M2690 7670 c0 -5 5 -10 10 -10 6 0 10 5 10 10 0 6 -4 10 -10 10 -5 0
-10 -4 -10 -10z"/>
<path d="M2745 7670 c-3 -5 1 -10 9 -10 9 0 16 5 16 10 0 6 -4 10 -9 10 -6 0
-13 -4 -16 -10z"/>
<path d="M7866 7661 c-4 -5 -2 -12 3 -15 5 -4 12 -2 15 3 4 5 2 12 -3 15 -5 4
-12 2 -15 -3z"/>
<path d="M2660 7640 c0 -5 5 -10 11 -10 5 0 7 5 4 10 -3 6 -8 10 -11 10 -2 0
-4 -4 -4 -10z"/>
<path d="M2720 7640 c0 -5 5 -10 10 -10 6 0 10 5 10 10 0 6 -4 10 -10 10 -5 0
-10 -4 -10 -10z"/>
<path d="M2810 7611 c25 -22 48 -37 52 -35 4 3 5 -2 2 -10 -4 -11 0 -16 10
-16 9 0 16 -6 16 -14 0 -13 29 -31 37 -23 6 7 -9 37 -19 37 -5 0 -21 14 -35
30 -14 17 -28 29 -30 26 -3 -3 -15 6 -28 20 -12 13 -28 24 -36 24 -7 0 7 -18
31 -39z"/>
<path d="M2470 7630 c0 -5 5 -10 10 -10 6 0 10 5 10 10 0 6 -4 10 -10 10 -5 0
-10 -4 -10 -10z"/>
<path d="M2600 7629 c0 -5 5 -7 10 -4 6 3 10 8 10 11 0 2 -4 4 -10 4 -5 0 -10
-5 -10 -11z"/>
<path d="M2867 7633 c-10 -16 11 -39 23 -27 8 8 7 14 -4 23 -8 7 -17 8 -19 4z"/>
<path d="M7885 7630 c-3 -5 1 -10 9 -10 9 0 16 5 16 10 0 6 -4 10 -9 10 -6 0
-13 -4 -16 -10z"/>
<path d="M7940 7630 c0 -5 5 -10 11 -10 5 0 7 5 4 10 -3 6 -8 10 -11 10 -2 0
-4 -4 -4 -10z"/>
<path d="M2748 7624 c-9 -8 34 -54 44 -48 12 8 10 24 -3 24 -7 0 -17 7 -23 16
-6 8 -15 12 -18 8z"/>
<path d="M2625 7610 c-3 -5 1 -10 10 -10 9 0 13 5 10 10 -3 6 -8 10 -10 10 -2
0 -7 -4 -10 -10z"/>
<path d="M2685 7610 c-3 -5 1 -10 10 -10 9 0 13 5 10 10 -3 6 -8 10 -10 10 -2
0 -7 -4 -10 -10z"/>
<path d="M2325 7600 c-3 -5 -1 -10 4 -10 6 0 11 5 11 10 0 6 -2 10 -4 10 -3 0
-8 -4 -11 -10z"/>
<path d="M2440 7600 c0 -5 5 -10 10 -10 6 0 10 5 10 10 0 6 -4 10 -10 10 -5 0
-10 -4 -10 -10z"/>
<path d="M2500 7600 c0 -5 5 -10 10 -10 6 0 10 5 10 10 0 6 -4 10 -10 10 -5 0
-10 -4 -10 -10z"/>
<path d="M2565 7600 c4 -6 11 -8 16 -5 14 9 11 15 -7 15 -8 0 -12 -5 -9 -10z"/>
<path d="M7910 7600 c0 -5 7 -10 15 -10 8 0 15 -7 15 -15 0 -8 5 -15 10 -15 6
0 36 -26 67 -57 31 -32 54 -52 52 -46 -5 17 -140 153 -151 153 -4 0 -8 -4 -8
-10z"/>
<path d="M2716 7593 c-11 -11 -6 -23 9 -23 8 0 15 4 15 9 0 13 -16 22 -24 14z"/>
<path d="M2595 7579 c-10 -15 3 -25 16 -12 7 7 7 13 1 17 -6 3 -14 1 -17 -5z"/>
<path d="M2650 7580 c0 -5 5 -10 10 -10 6 0 10 5 10 10 0 6 -4 10 -10 10 -5 0
-10 -4 -10 -10z"/>
<path d="M2350 7570 c0 -5 5 -10 11 -10 5 0 7 5 4 10 -3 6 -8 10 -11 10 -2 0
-4 -4 -4 -10z"/>
<path d="M2405 7570 c-3 -5 1 -10 10 -10 9 0 13 5 10 10 -3 6 -8 10 -10 10 -2
0 -7 -4 -10 -10z"/>
<path d="M2470 7564 c0 -8 5 -12 10 -9 6 3 10 10 10 16 0 5 -4 9 -10 9 -5 0
-10 -7 -10 -16z"/>
<path d="M2530 7570 c0 -5 7 -10 15 -10 8 0 15 5 15 10 0 6 -7 10 -15 10 -8 0
-15 -4 -15 -10z"/>
<path d="M2805 7570 c-4 -6 -3 -16 3 -22 6 -6 12 -6 17 2 4 6 3 16 -3 22 -6 6
-12 6 -17 -2z"/>
<path d="M2747 7563 c-12 -11 -8 -23 8 -23 8 0 15 7 15 15 0 16 -12 20 -23 8z"/>
<path d="M2625 7549 c-10 -15 3 -25 16 -12 7 7 7 13 1 17 -6 3 -14 1 -17 -5z"/>
<path d="M2682 7548 c6 -18 28 -21 28 -4 0 9 -7 16 -16 16 -9 0 -14 -5 -12
-12z"/>
<path d="M2381 7534 c0 -11 3 -14 6 -6 3 7 2 16 -1 19 -3 4 -6 -2 -5 -13z"/>
<path d="M2436 7542 c-3 -6 -1 -14 5 -17 15 -10 25 3 12 16 -7 7 -13 7 -17 1z"/>
<path d="M2500 7535 c0 -8 5 -15 10 -15 6 0 10 7 10 15 0 8 -4 15 -10 15 -5 0
-10 -7 -10 -15z"/>
<path d="M2562 7539 c2 -6 8 -10 13 -10 5 0 11 4 13 10 2 6 -4 11 -13 11 -9 0
-15 -5 -13 -11z"/>
<path d="M2835 7539 c-10 -15 1 -23 20 -15 9 3 13 10 10 16 -8 13 -22 13 -30
-1z"/>
<path d="M2777 7533 c-13 -12 -7 -25 8 -19 9 3 15 0 15 -9 0 -8 7 -15 15 -15
20 0 19 6 -5 30 -22 22 -24 23 -33 13z"/>
<path d="M2240 7520 c0 -5 5 -10 10 -10 6 0 10 5 10 10 0 6 -4 10 -10 10 -5 0
-10 -4 -10 -10z"/>
<path d="M2300 7520 c0 -5 5 -10 10 -10 6 0 10 5 10 10 0 6 -4 10 -10 10 -5 0
-10 -4 -10 -10z"/>
<path d="M2655 7520 c-4 -6 -3 -16 3 -22 6 -6 12 -6 17 2 4 6 3 16 -3 22 -6 6
-12 6 -17 -2z"/>
<path d="M2715 7521 c-3 -6 3 -15 14 -21 14 -7 22 -7 27 2 4 7 3 8 -4 4 -7 -4
-12 -1 -12 8 0 18 -15 21 -25 7z"/>
<path d="M2406 7511 c-4 -7 -5 -15 -2 -18 9 -9 19 4 14 18 -4 11 -6 11 -12 0z"/>
<path d="M2530 7505 c0 -9 5 -15 11 -13 6 2 11 8 11 13 0 5 -5 11 -11 13 -6 2
-11 -4 -11 -13z"/>
<path d="M2590 7510 c0 -5 5 -10 10 -10 6 0 10 5 10 10 0 6 -4 10 -10 10 -5 0
-10 -4 -10 -10z"/>
<path d="M2465 7500 c3 -5 10 -10 16 -10 5 0 9 5 9 10 0 6 -7 10 -16 10 -8 0
-12 -4 -9 -10z"/>
<path d="M2210 7490 c0 -5 5 -10 10 -10 6 0 10 5 10 10 0 6 -4 10 -10 10 -5 0
-10 -4 -10 -10z"/>
<path d="M2265 7490 c3 -5 10 -10 16 -10 5 0 9 5 9 10 0 6 -7 10 -16 10 -8 0
-12 -4 -9 -10z"/>
<path d="M2330 7490 c0 -5 5 -10 10 -10 6 0 10 5 10 10 0 6 -4 10 -10 10 -5 0
-10 -4 -10 -10z"/>
<path d="M2620 7487 c0 -19 16 -31 24 -18 3 5 -1 14 -9 21 -12 10 -15 10 -15
-3z"/>
<path d="M2373 7483 c-14 -5 -18 -35 -5 -30 4 1 25 -15 46 -35 22 -21 43 -38
47 -38 5 0 6 -7 3 -15 -6 -15 21 -22 29 -7 6 9 -60 72 -67 64 -3 -3 -6 2 -6
10 0 9 -9 18 -20 21 -13 3 -18 10 -14 21 7 17 6 17 -13 9z"/>
<path d="M2560 7475 c0 -8 5 -15 10 -15 6 0 10 7 10 15 0 8 -4 15 -10 15 -5 0
-10 -7 -10 -15z"/>
<path d="M2682 7478 c6 -18 28 -21 28 -4 0 9 -7 16 -16 16 -9 0 -14 -5 -12
-12z"/>
<path d="M2751 7481 c-10 -6 -10 -10 -1 -16 13 -8 24 -1 19 14 -3 6 -10 7 -18
2z"/>
<path d="M2837 7483 c-12 -11 -7 -23 9 -23 10 0 14 -5 10 -16 -4 -10 -2 -13 6
-8 7 5 8 3 4 -5 -5 -7 -14 -10 -22 -7 -17 7 -31 -21 -17 -35 6 -6 20 2 38 21
l28 29 -25 26 c-14 13 -28 22 -31 18z"/>
<path d="M2300 7465 c0 -8 5 -15 10 -15 6 0 10 7 10 15 0 8 -4 15 -10 15 -5 0
-10 -7 -10 -15z"/>
<path d="M2500 7470 c0 -5 5 -10 10 -10 6 0 10 5 10 10 0 6 -4 10 -10 10 -5 0
-10 -4 -10 -10z"/>
<path d="M2240 7460 c0 -5 5 -10 10 -10 6 0 10 5 10 10 0 6 -4 10 -10 10 -5 0
-10 -4 -10 -10z"/>
<path d="M2777 7456 c-8 -19 15 -37 33 -26 11 7 11 11 1 24 -17 20 -27 20 -34
2z"/>
<path d="M2130 7449 c0 -5 5 -7 10 -4 6 3 10 8 10 11 0 2 -4 4 -10 4 -5 0 -10
-5 -10 -11z"/>
<path d="M2592 7451 c4 -13 18 -16 19 -4 0 4 -5 9 -11 12 -7 2 -11 -2 -8 -8z"/>
<path d="M2650 7446 c0 -9 7 -16 16 -16 17 0 14 22 -4 28 -7 2 -12 -3 -12 -12z"/>
<path d="M2206 7435 c-3 -9 0 -15 9 -15 16 0 20 16 6 24 -5 3 -11 -1 -15 -9z"/>
<path d="M2267 7443 c-12 -11 -8 -23 8 -23 8 0 15 7 15 15 0 16 -12 20 -23 8z"/>
<path d="M2330 7441 c0 -6 5 -13 10 -16 6 -3 10 1 10 9 0 9 -4 16 -10 16 -5 0
-10 -4 -10 -9z"/>
<path d="M8080 7441 c0 -5 5 -13 10 -16 6 -3 10 -2 10 4 0 5 -4 13 -10 16 -5
3 -10 2 -10 -4z"/>
<path d="M2157 7433 c-4 -3 -7 -11 -7 -17 0 -6 5 -5 12 2 6 6 9 14 7 17 -3 3
-9 2 -12 -2z"/>
<path d="M2105 7420 c-3 -5 -1 -10 4 -10 6 0 11 5 11 10 0 6 -2 10 -4 10 -3 0
-8 -4 -11 -10z"/>
<path d="M2176 7405 c-3 -9 0 -15 9 -15 16 0 20 16 6 24 -5 3 -11 -1 -15 -9z"/>
<path d="M2235 7409 c-10 -15 3 -25 16 -12 7 7 7 13 1 17 -6 3 -14 1 -17 -5z"/>
<path d="M2296 7404 c-4 -10 -1 -14 6 -12 15 5 23 28 10 28 -5 0 -13 -7 -16
-16z"/>
<path d="M8110 7410 c0 -5 5 -10 11 -10 5 0 7 5 4 10 -3 6 -8 10 -11 10 -2 0
-4 -4 -4 -10z"/>
<path d="M2126 7401 c-4 -7 -5 -15 -2 -18 9 -9 19 4 14 18 -4 11 -6 11 -12 0z"/>
<path d="M2206 7383 c-11 -11 -6 -23 9 -23 8 0 15 4 15 9 0 13 -16 22 -24 14z"/>
<path d="M2269 7383 c-1 -4 -1 -11 0 -15 0 -5 -4 -8 -11 -8 -13 0 -58 -48 -58
-62 0 -4 7 -8 15 -8 8 0 15 8 15 19 0 11 9 21 21 24 17 5 20 2 16 -13 -3 -14
0 -18 14 -17 23 2 24 5 3 29 -13 14 -14 21 -5 32 8 10 9 16 1 21 -5 3 -11 3
-11 -2z"/>
<path d="M2330 7380 c0 -5 7 -10 16 -10 8 0 12 5 9 10 -3 6 -10 10 -16 10 -5
0 -9 -4 -9 -10z"/>
<path d="M8130 7380 c0 -5 5 -10 10 -10 6 0 10 5 10 10 0 6 -4 10 -10 10 -5 0
-10 -4 -10 -10z"/>
<path d="M2080 7370 c0 -6 7 -10 15 -10 8 0 15 2 15 4 0 2 -7 6 -15 10 -8 3
-15 1 -15 -4z"/>
<path d="M2147 7373 c-10 -9 -9 -23 2 -23 5 0 11 7 15 15 5 15 -5 20 -17 8z"/>
<path d="M2020 7356 c0 -9 5 -16 10 -16 6 0 10 4 10 9 0 6 -4 13 -10 16 -5 3
-10 -1 -10 -9z"/>
<path d="M2302 7349 c2 -7 10 -15 17 -17 8 -3 12 1 9 9 -2 7 -10 15 -17 17 -8
3 -12 -1 -9 -9z"/>
<path d="M2370 7348 c0 -18 18 -34 28 -24 3 4 -2 14 -11 23 -16 16 -17 16 -17
1z"/>
<path d="M8160 7359 c0 -3 10 -17 23 -30 12 -14 30 -36 39 -49 9 -14 17 -20
17 -15 1 11 -78 104 -79 94z"/>
<path d="M2170 7335 c0 -8 5 -15 10 -15 6 0 10 7 10 15 0 8 -4 15 -10 15 -5 0
-10 -7 -10 -15z"/>
<path d="M2050 7336 c0 -4 8 -19 19 -32 l18 -23 22 23 c23 24 27 36 11 36 -5
0 -10 -6 -10 -14 0 -25 -18 -27 -39 -4 -12 12 -21 18 -21 14z"/>
<path d="M2001 7314 c0 -11 3 -14 6 -6 3 7 2 16 -1 19 -3 4 -6 -2 -5 -13z"/>
<path d="M2137 7313 c-12 -11 -8 -23 8 -23 8 0 15 7 15 15 0 16 -12 20 -23 8z"/>
<path d="M1976 7291 c-4 -7 -5 -15 -2 -18 9 -9 19 4 14 18 -4 11 -6 11 -12 0z"/>
<path d="M2025 7290 c3 -5 8 -10 11 -10 2 0 4 5 4 10 0 6 -5 10 -11 10 -5 0
-7 -4 -4 -10z"/>
<path d="M2167 7283 c-11 -10 -8 -20 8 -27 10 -4 15 1 15 14 0 20 -11 26 -23
13z"/>
<path d="M2046 7271 c-4 -5 -2 -12 3 -15 5 -4 12 -2 15 3 4 5 2 12 -3 15 -5 4
-12 2 -15 -3z"/>
<path d="M2100 7273 c0 -13 47 -53 54 -46 11 11 7 23 -8 23 -8 0 -16 7 -20 15
-5 15 -26 21 -26 8z"/>
<path d="M2000 7260 c0 -5 5 -10 10 -10 6 0 10 -7 10 -15 0 -8 5 -15 10 -15
15 0 12 19 -4 36 -17 16 -26 18 -26 4z"/>
<path d="M1950 7244 c0 -8 5 -12 10 -9 6 3 10 10 10 16 0 5 -4 9 -10 9 -5 0
-10 -7 -10 -16z"/>
<path d="M2070 7241 c0 -5 7 -11 15 -15 8 -3 15 -13 15 -21 0 -9 -4 -14 -9
-11 -5 3 -11 -1 -15 -9 -8 -23 12 -28 24 -5 6 11 15 18 21 15 5 -4 9 1 9 9 0
9 -7 16 -15 16 -9 0 -18 7 -21 15 -7 16 -24 21 -24 6z"/>
<path d="M1976 7231 c-5 -8 -3 -16 5 -22 19 -12 29 -11 29 2 0 5 -4 8 -9 4 -5
-3 -11 3 -13 12 -3 14 -5 15 -12 4z"/>
<path d="M1925 7221 c-3 -5 -1 -12 5 -16 5 -3 10 1 10 9 0 18 -6 21 -15 7z"/>
<path d="M2030 7195 c-19 -21 -21 -25 -7 -25 9 0 17 7 17 15 0 8 7 15 15 15 8
0 15 5 15 10 0 17 -15 11 -40 -15z"/>
<path d="M1906 7191 c-4 -7 -5 -15 -2 -18 9 -9 19 4 14 18 -4 11 -6 11 -12 0z"/>
<path d="M1947 7193 c-3 -3 1 -12 9 -20 8 -9 18 -13 21 -10 3 3 -1 13 -10 21
-8 8 -17 12 -20 9z"/>
<path d="M2106 7161 c-7 -10 40 -60 75 -80 23 -14 23 -13 9 5 -34 43 -79 83
-84 75z"/>
<path d="M8305 7160 c3 -5 8 -10 11 -10 2 0 4 5 4 10 0 6 -5 10 -11 10 -5 0
-7 -4 -4 -10z"/>
<path d="M1880 7150 c0 -5 5 -10 10 -10 6 0 10 5 10 10 0 6 -4 10 -10 10 -5 0
-10 -4 -10 -10z"/>
<path d="M1860 7120 c0 -5 5 -10 10 -10 6 0 10 5 10 10 0 6 -4 10 -10 10 -5 0
-10 -4 -10 -10z"/>
<path d="M1842 7084 c-7 -8 -12 -20 -9 -27 2 -7 9 -2 16 11 15 28 11 36 -7 16z"/>
<path d="M1880 7091 c0 -5 5 -13 10 -16 6 -3 10 -2 10 4 0 5 -4 13 -10 16 -5
3 -10 2 -10 -4z"/>
<path d="M7081 7074 c0 -11 3 -14 6 -6 3 7 2 16 -1 19 -3 4 -6 -2 -5 -13z"/>
<path d="M1865 7060 c3 -5 11 -10 16 -10 6 0 7 5 4 10 -3 6 -11 10 -16 10 -6
0 -7 -4 -4 -10z"/>
<path d="M1782 6978 c2 -6 10 -14 16 -16 7 -2 10 2 6 12 -7 18 -28 22 -22 4z"/>
<path d="M1766 6943 c-6 -14 -5 -15 5 -6 7 7 10 15 7 18 -3 3 -9 -2 -12 -12z"/>
<path d="M2666 5921 c-6 -8 40 -21 73 -21 14 1 14 2 -2 11 -9 5 -22 7 -27 4
-6 -3 -10 -1 -10 4 0 13 -27 15 -34 2z"/>
<path d="M2265 6980 c3 -5 11 -10 16 -10 6 0 7 5 4 10 -3 6 -11 10 -16 10 -6
0 -7 -4 -4 -10z"/>
<path d="M1697 6822 c-18 -20 -22 -32 -9 -32 4 0 12 11 19 25 13 30 12 31 -10
7z"/>
<path d="M1810 6580 c0 -5 5 -10 11 -10 5 0 7 5 4 10 -3 6 -8 10 -11 10 -2 0
-4 -4 -4 -10z"/>
<path d="M2453 5173 c9 -2 25 -2 35 0 9 3 1 5 -18 5 -19 0 -27 -2 -17 -5z"/>
<path d="M8063 4224 c-8 -21 13 -42 28 -27 13 13 5 43 -11 43 -6 0 -13 -7 -17
-16z"/>
<path d="M3600 3666 c0 -2 7 -9 15 -16 13 -11 14 -10 9 4 -5 14 -24 23 -24 12z"/>
<path d="M7564 2978 l-19 -23 23 19 c21 18 27 26 19 26 -2 0 -12 -10 -23 -22z"/>
<path d="M8505 6000 c-4 -7 -3 -16 3 -22 14 -14 45 -2 40 15 -6 16 -34 21 -43
7z"/>
</g>
</svg>
